<mxfile host="app.diagrams.net" modified="2024-04-28T22:46:12.854Z" agent="Mozilla/5.0 (Windows NT 10.0; Win64; x64; rv:125.0) Gecko/20100101 Firefox/125.0" etag="cLYPZNpmf8mMGHlhhbBm" version="24.3.0" type="github">
  <diagram name="Page-1" id="GVhFGZ3rpqO2WIiVd2YP">
    <mxGraphModel dx="2576" dy="2541" grid="0" gridSize="10" guides="1" tooltips="1" connect="1" arrows="1" fold="1" page="0" pageScale="1" pageWidth="827" pageHeight="1169" math="0" shadow="0">
      <root>
        <mxCell id="0" />
        <mxCell id="1" parent="0" />
        <mxCell id="gxhyZ_KrEdZM4fqts1G2-91" style="edgeStyle=none;curved=1;rounded=0;orthogonalLoop=1;jettySize=auto;html=1;exitX=1;exitY=0.5;exitDx=0;exitDy=0;fontSize=12;startSize=8;endSize=8;endArrow=none;endFill=0;" parent="1" source="gxhyZ_KrEdZM4fqts1G2-1" target="gxhyZ_KrEdZM4fqts1G2-90" edge="1">
          <mxGeometry relative="1" as="geometry" />
        </mxCell>
        <mxCell id="gxhyZ_KrEdZM4fqts1G2-111" value="1" style="edgeLabel;html=1;align=center;verticalAlign=middle;resizable=0;points=[];fontSize=12;" parent="gxhyZ_KrEdZM4fqts1G2-91" vertex="1" connectable="0">
          <mxGeometry x="-0.0467" relative="1" as="geometry">
            <mxPoint x="-44" y="9" as="offset" />
          </mxGeometry>
        </mxCell>
        <mxCell id="gxhyZ_KrEdZM4fqts1G2-94" style="edgeStyle=none;curved=1;rounded=0;orthogonalLoop=1;jettySize=auto;html=1;exitX=0;exitY=0.5;exitDx=0;exitDy=0;entryX=1;entryY=0.5;entryDx=0;entryDy=0;fontSize=12;startSize=8;endSize=8;endArrow=none;endFill=0;strokeColor=#FFFFFF;" parent="1" source="gxhyZ_KrEdZM4fqts1G2-1" edge="1">
          <mxGeometry relative="1" as="geometry">
            <mxPoint x="-361" y="42" as="targetPoint" />
          </mxGeometry>
        </mxCell>
        <mxCell id="gxhyZ_KrEdZM4fqts1G2-109" value="1" style="edgeLabel;html=1;align=center;verticalAlign=middle;resizable=0;points=[];fontSize=12;" parent="gxhyZ_KrEdZM4fqts1G2-94" vertex="1" connectable="0">
          <mxGeometry x="0.0441" y="-2" relative="1" as="geometry">
            <mxPoint x="80" y="34" as="offset" />
          </mxGeometry>
        </mxCell>
        <mxCell id="gxhyZ_KrEdZM4fqts1G2-117" value="1" style="edgeLabel;html=1;align=center;verticalAlign=middle;resizable=0;points=[];fontSize=12;" parent="gxhyZ_KrEdZM4fqts1G2-94" vertex="1" connectable="0">
          <mxGeometry x="0.0441" y="-2" relative="1" as="geometry">
            <mxPoint x="141" y="34" as="offset" />
          </mxGeometry>
        </mxCell>
        <mxCell id="gxhyZ_KrEdZM4fqts1G2-122" value="N" style="edgeLabel;html=1;align=center;verticalAlign=middle;resizable=0;points=[];fontSize=12;" parent="gxhyZ_KrEdZM4fqts1G2-94" vertex="1" connectable="0">
          <mxGeometry x="0.0441" y="-2" relative="1" as="geometry">
            <mxPoint x="-214" y="222" as="offset" />
          </mxGeometry>
        </mxCell>
        <mxCell id="gxhyZ_KrEdZM4fqts1G2-123" value="1" style="edgeLabel;html=1;align=center;verticalAlign=middle;resizable=0;points=[];fontSize=12;" parent="gxhyZ_KrEdZM4fqts1G2-94" vertex="1" connectable="0">
          <mxGeometry x="0.0441" y="-2" relative="1" as="geometry">
            <mxPoint x="-214" y="432" as="offset" />
          </mxGeometry>
        </mxCell>
        <mxCell id="gxhyZ_KrEdZM4fqts1G2-133" value="1" style="edgeLabel;html=1;align=center;verticalAlign=middle;resizable=0;points=[];fontSize=12;" parent="gxhyZ_KrEdZM4fqts1G2-94" vertex="1" connectable="0">
          <mxGeometry x="0.0441" y="-2" relative="1" as="geometry">
            <mxPoint x="554" y="643" as="offset" />
          </mxGeometry>
        </mxCell>
        <mxCell id="F6LjRjJi2KFlLczRS62S-1" value="1" style="edgeLabel;html=1;align=center;verticalAlign=middle;resizable=0;points=[];fontSize=12;" parent="gxhyZ_KrEdZM4fqts1G2-94" vertex="1" connectable="0">
          <mxGeometry x="0.0441" y="-2" relative="1" as="geometry">
            <mxPoint x="115" y="601" as="offset" />
          </mxGeometry>
        </mxCell>
        <mxCell id="F6LjRjJi2KFlLczRS62S-29" value="M" style="edgeLabel;html=1;align=center;verticalAlign=middle;resizable=0;points=[];fontSize=12;" parent="gxhyZ_KrEdZM4fqts1G2-94" vertex="1" connectable="0">
          <mxGeometry x="0.0441" y="-2" relative="1" as="geometry">
            <mxPoint x="48" y="612" as="offset" />
          </mxGeometry>
        </mxCell>
        <mxCell id="F6LjRjJi2KFlLczRS62S-39" value="1" style="edgeLabel;html=1;align=center;verticalAlign=middle;resizable=0;points=[];fontSize=12;" parent="gxhyZ_KrEdZM4fqts1G2-94" vertex="1" connectable="0">
          <mxGeometry x="0.0441" y="-2" relative="1" as="geometry">
            <mxPoint x="48" y="653" as="offset" />
          </mxGeometry>
        </mxCell>
        <mxCell id="gxhyZ_KrEdZM4fqts1G2-99" style="edgeStyle=orthogonalEdgeStyle;rounded=0;orthogonalLoop=1;jettySize=auto;html=1;exitX=0.75;exitY=1;exitDx=0;exitDy=0;entryX=0;entryY=0.5;entryDx=0;entryDy=0;fontSize=12;startSize=8;endSize=8;endArrow=none;endFill=0;" parent="1" source="gxhyZ_KrEdZM4fqts1G2-1" target="gxhyZ_KrEdZM4fqts1G2-97" edge="1">
          <mxGeometry relative="1" as="geometry">
            <Array as="points">
              <mxPoint x="-175" y="241" />
            </Array>
          </mxGeometry>
        </mxCell>
        <mxCell id="gxhyZ_KrEdZM4fqts1G2-128" style="edgeStyle=orthogonalEdgeStyle;rounded=0;orthogonalLoop=1;jettySize=auto;html=1;exitX=0.75;exitY=1;exitDx=0;exitDy=0;entryX=0;entryY=0.5;entryDx=0;entryDy=0;fontSize=12;startSize=8;endSize=8;endArrow=none;endFill=0;" parent="1" source="gxhyZ_KrEdZM4fqts1G2-1" target="gxhyZ_KrEdZM4fqts1G2-126" edge="1">
          <mxGeometry relative="1" as="geometry">
            <Array as="points">
              <mxPoint x="-175" y="482" />
            </Array>
          </mxGeometry>
        </mxCell>
        <mxCell id="F6LjRjJi2KFlLczRS62S-16" style="edgeStyle=orthogonalEdgeStyle;rounded=0;orthogonalLoop=1;jettySize=auto;html=1;exitX=0.5;exitY=1;exitDx=0;exitDy=0;entryX=0.5;entryY=0;entryDx=0;entryDy=0;fontSize=12;startSize=8;endSize=8;endArrow=none;endFill=0;" parent="1" source="gxhyZ_KrEdZM4fqts1G2-1" target="F6LjRjJi2KFlLczRS62S-15" edge="1">
          <mxGeometry relative="1" as="geometry">
            <Array as="points">
              <mxPoint x="-199" y="498" />
              <mxPoint x="-199" y="498" />
            </Array>
          </mxGeometry>
        </mxCell>
        <mxCell id="F6LjRjJi2KFlLczRS62S-54" style="edgeStyle=none;curved=1;rounded=0;orthogonalLoop=1;jettySize=auto;html=1;exitX=0.5;exitY=0;exitDx=0;exitDy=0;entryX=1;entryY=0.5;entryDx=0;entryDy=0;fontSize=12;startSize=8;endSize=8;endArrow=none;endFill=0;" parent="1" source="gxhyZ_KrEdZM4fqts1G2-1" target="gxhyZ_KrEdZM4fqts1G2-3" edge="1">
          <mxGeometry relative="1" as="geometry" />
        </mxCell>
        <mxCell id="F6LjRjJi2KFlLczRS62S-55" style="edgeStyle=none;curved=1;rounded=0;orthogonalLoop=1;jettySize=auto;html=1;exitX=0.5;exitY=0;exitDx=0;exitDy=0;entryX=1;entryY=1;entryDx=0;entryDy=0;fontSize=12;startSize=8;endSize=8;endArrow=none;endFill=0;" parent="1" source="gxhyZ_KrEdZM4fqts1G2-1" target="gxhyZ_KrEdZM4fqts1G2-2" edge="1">
          <mxGeometry relative="1" as="geometry" />
        </mxCell>
        <mxCell id="F6LjRjJi2KFlLczRS62S-56" style="edgeStyle=none;curved=1;rounded=0;orthogonalLoop=1;jettySize=auto;html=1;exitX=0.5;exitY=0;exitDx=0;exitDy=0;entryX=0.5;entryY=1;entryDx=0;entryDy=0;fontSize=12;startSize=8;endSize=8;endArrow=none;endFill=0;" parent="1" source="gxhyZ_KrEdZM4fqts1G2-1" target="gxhyZ_KrEdZM4fqts1G2-102" edge="1">
          <mxGeometry relative="1" as="geometry" />
        </mxCell>
        <mxCell id="F6LjRjJi2KFlLczRS62S-57" style="edgeStyle=none;curved=1;rounded=0;orthogonalLoop=1;jettySize=auto;html=1;exitX=0.5;exitY=0;exitDx=0;exitDy=0;entryX=0;entryY=1;entryDx=0;entryDy=0;fontSize=12;startSize=8;endSize=8;endArrow=none;endFill=0;" parent="1" source="gxhyZ_KrEdZM4fqts1G2-1" target="gxhyZ_KrEdZM4fqts1G2-4" edge="1">
          <mxGeometry relative="1" as="geometry" />
        </mxCell>
        <mxCell id="F6LjRjJi2KFlLczRS62S-58" style="edgeStyle=none;curved=1;rounded=0;orthogonalLoop=1;jettySize=auto;html=1;exitX=0.5;exitY=0;exitDx=0;exitDy=0;entryX=0;entryY=0.5;entryDx=0;entryDy=0;fontSize=12;startSize=8;endSize=8;endArrow=none;endFill=0;" parent="1" source="gxhyZ_KrEdZM4fqts1G2-1" target="gxhyZ_KrEdZM4fqts1G2-5" edge="1">
          <mxGeometry relative="1" as="geometry" />
        </mxCell>
        <mxCell id="gxhyZ_KrEdZM4fqts1G2-1" value="Usuario" style="rounded=0;whiteSpace=wrap;html=1;strokeWidth=3;" parent="1" vertex="1">
          <mxGeometry x="-248" y="22" width="97" height="39" as="geometry" />
        </mxCell>
        <mxCell id="gxhyZ_KrEdZM4fqts1G2-2" value="nombre" style="ellipse;whiteSpace=wrap;html=1;" parent="1" vertex="1">
          <mxGeometry x="-342" y="-85" width="104" height="40" as="geometry" />
        </mxCell>
        <mxCell id="gxhyZ_KrEdZM4fqts1G2-3" value="&lt;u&gt;nroUsuario&lt;/u&gt;" style="ellipse;whiteSpace=wrap;html=1;" parent="1" vertex="1">
          <mxGeometry x="-402" y="-38" width="104" height="40" as="geometry" />
        </mxCell>
        <mxCell id="gxhyZ_KrEdZM4fqts1G2-4" value="apellido" style="ellipse;whiteSpace=wrap;html=1;" parent="1" vertex="1">
          <mxGeometry x="-171" y="-85" width="104" height="40" as="geometry" />
        </mxCell>
        <mxCell id="gxhyZ_KrEdZM4fqts1G2-5" value="mail" style="ellipse;whiteSpace=wrap;html=1;" parent="1" vertex="1">
          <mxGeometry x="-111" y="-38" width="104" height="40" as="geometry" />
        </mxCell>
        <mxCell id="F6LjRjJi2KFlLczRS62S-67" style="edgeStyle=none;curved=1;rounded=0;orthogonalLoop=1;jettySize=auto;html=1;exitX=0.5;exitY=0;exitDx=0;exitDy=0;entryX=1;entryY=1;entryDx=0;entryDy=0;fontSize=12;startSize=8;endSize=8;endArrow=none;endFill=0;" parent="1" source="gxhyZ_KrEdZM4fqts1G2-13" target="gxhyZ_KrEdZM4fqts1G2-15" edge="1">
          <mxGeometry relative="1" as="geometry" />
        </mxCell>
        <mxCell id="F6LjRjJi2KFlLczRS62S-68" style="edgeStyle=none;curved=1;rounded=0;orthogonalLoop=1;jettySize=auto;html=1;exitX=0.5;exitY=0;exitDx=0;exitDy=0;entryX=0;entryY=1;entryDx=0;entryDy=0;fontSize=12;startSize=8;endSize=8;endArrow=none;endFill=0;" parent="1" source="gxhyZ_KrEdZM4fqts1G2-13" target="gxhyZ_KrEdZM4fqts1G2-17" edge="1">
          <mxGeometry relative="1" as="geometry" />
        </mxCell>
        <mxCell id="F6LjRjJi2KFlLczRS62S-69" style="edgeStyle=none;curved=1;rounded=0;orthogonalLoop=1;jettySize=auto;html=1;exitX=0.5;exitY=0;exitDx=0;exitDy=0;entryX=1;entryY=1;entryDx=0;entryDy=0;fontSize=12;startSize=8;endSize=8;endArrow=none;endFill=0;" parent="1" source="gxhyZ_KrEdZM4fqts1G2-13" target="gxhyZ_KrEdZM4fqts1G2-14" edge="1">
          <mxGeometry relative="1" as="geometry" />
        </mxCell>
        <mxCell id="F6LjRjJi2KFlLczRS62S-70" style="edgeStyle=none;curved=1;rounded=0;orthogonalLoop=1;jettySize=auto;html=1;exitX=0.5;exitY=0;exitDx=0;exitDy=0;entryX=0;entryY=1;entryDx=0;entryDy=0;fontSize=12;startSize=8;endSize=8;endArrow=none;endFill=0;" parent="1" source="gxhyZ_KrEdZM4fqts1G2-13" target="gxhyZ_KrEdZM4fqts1G2-104" edge="1">
          <mxGeometry relative="1" as="geometry" />
        </mxCell>
        <mxCell id="gxhyZ_KrEdZM4fqts1G2-13" value="Caso" style="rounded=0;whiteSpace=wrap;html=1;strokeWidth=3;" parent="1" vertex="1">
          <mxGeometry x="146" y="22" width="97" height="39" as="geometry" />
        </mxCell>
        <mxCell id="gxhyZ_KrEdZM4fqts1G2-14" value="estado" style="ellipse;whiteSpace=wrap;html=1;" parent="1" vertex="1">
          <mxGeometry x="82" y="-85" width="104" height="40" as="geometry" />
        </mxCell>
        <mxCell id="gxhyZ_KrEdZM4fqts1G2-15" value="&lt;u&gt;nroCaso&lt;/u&gt;" style="ellipse;whiteSpace=wrap;html=1;" parent="1" vertex="1">
          <mxGeometry x="42" y="-38" width="104" height="40" as="geometry" />
        </mxCell>
        <mxCell id="gxhyZ_KrEdZM4fqts1G2-17" value="fecha" style="ellipse;whiteSpace=wrap;html=1;" parent="1" vertex="1">
          <mxGeometry x="243" y="-38" width="104" height="40" as="geometry" />
        </mxCell>
        <mxCell id="F6LjRjJi2KFlLczRS62S-32" style="edgeStyle=orthogonalEdgeStyle;rounded=0;orthogonalLoop=1;jettySize=auto;html=1;exitX=1;exitY=0.5;exitDx=0;exitDy=0;entryX=0.5;entryY=0;entryDx=0;entryDy=0;fontSize=12;startSize=8;endSize=8;endArrow=none;endFill=0;" parent="1" source="gxhyZ_KrEdZM4fqts1G2-22" target="gxhyZ_KrEdZM4fqts1G2-96" edge="1">
          <mxGeometry relative="1" as="geometry" />
        </mxCell>
        <mxCell id="F6LjRjJi2KFlLczRS62S-42" style="edgeStyle=none;curved=1;rounded=0;orthogonalLoop=1;jettySize=auto;html=1;exitX=0.5;exitY=0;exitDx=0;exitDy=0;entryX=1;entryY=1;entryDx=0;entryDy=0;fontSize=12;startSize=8;endSize=8;endArrow=none;endFill=0;" parent="1" source="gxhyZ_KrEdZM4fqts1G2-22" target="gxhyZ_KrEdZM4fqts1G2-24" edge="1">
          <mxGeometry relative="1" as="geometry" />
        </mxCell>
        <mxCell id="F6LjRjJi2KFlLczRS62S-43" style="edgeStyle=none;curved=1;rounded=0;orthogonalLoop=1;jettySize=auto;html=1;exitX=0.5;exitY=0;exitDx=0;exitDy=0;entryX=0.5;entryY=1;entryDx=0;entryDy=0;fontSize=12;startSize=8;endSize=8;endArrow=none;endFill=0;" parent="1" source="gxhyZ_KrEdZM4fqts1G2-22" target="gxhyZ_KrEdZM4fqts1G2-106" edge="1">
          <mxGeometry relative="1" as="geometry" />
        </mxCell>
        <mxCell id="F6LjRjJi2KFlLczRS62S-44" style="edgeStyle=none;curved=1;rounded=0;orthogonalLoop=1;jettySize=auto;html=1;entryX=0.5;entryY=1;entryDx=0;entryDy=0;fontSize=12;startSize=8;endSize=8;exitX=0.5;exitY=0;exitDx=0;exitDy=0;endArrow=none;endFill=0;" parent="1" source="gxhyZ_KrEdZM4fqts1G2-22" target="F6LjRjJi2KFlLczRS62S-20" edge="1">
          <mxGeometry relative="1" as="geometry">
            <mxPoint x="-582" y="22" as="sourcePoint" />
          </mxGeometry>
        </mxCell>
        <mxCell id="F6LjRjJi2KFlLczRS62S-45" style="edgeStyle=none;curved=1;rounded=0;orthogonalLoop=1;jettySize=auto;html=1;exitX=0.5;exitY=0;exitDx=0;exitDy=0;fontSize=12;startSize=8;endSize=8;entryX=0;entryY=1;entryDx=0;entryDy=0;endArrow=none;endFill=0;" parent="1" source="gxhyZ_KrEdZM4fqts1G2-22" target="gxhyZ_KrEdZM4fqts1G2-26" edge="1">
          <mxGeometry relative="1" as="geometry">
            <mxPoint x="-482" y="2" as="targetPoint" />
          </mxGeometry>
        </mxCell>
        <mxCell id="gxhyZ_KrEdZM4fqts1G2-22" value="&lt;div&gt;Animal en Adopción&lt;/div&gt;" style="rounded=0;whiteSpace=wrap;html=1;strokeWidth=3;" parent="1" vertex="1">
          <mxGeometry x="-631" y="22" width="97" height="39" as="geometry" />
        </mxCell>
        <mxCell id="gxhyZ_KrEdZM4fqts1G2-24" value="&lt;u&gt;nroAdopción&lt;/u&gt;" style="ellipse;whiteSpace=wrap;html=1;" parent="1" vertex="1">
          <mxGeometry x="-735" y="-38.5" width="104" height="40" as="geometry" />
        </mxCell>
        <mxCell id="gxhyZ_KrEdZM4fqts1G2-26" value="fechaIngreso" style="ellipse;whiteSpace=wrap;html=1;" parent="1" vertex="1">
          <mxGeometry x="-534" y="-38.5" width="104" height="40" as="geometry" />
        </mxCell>
        <mxCell id="F6LjRjJi2KFlLczRS62S-63" style="edgeStyle=none;curved=1;rounded=0;orthogonalLoop=1;jettySize=auto;html=1;exitX=0.5;exitY=0;exitDx=0;exitDy=0;entryX=1;entryY=1;entryDx=0;entryDy=0;fontSize=12;startSize=8;endSize=8;endArrow=none;endFill=0;" parent="1" source="gxhyZ_KrEdZM4fqts1G2-31" target="gxhyZ_KrEdZM4fqts1G2-33" edge="1">
          <mxGeometry relative="1" as="geometry" />
        </mxCell>
        <mxCell id="F6LjRjJi2KFlLczRS62S-64" style="edgeStyle=none;curved=1;rounded=0;orthogonalLoop=1;jettySize=auto;html=1;exitX=0.5;exitY=0;exitDx=0;exitDy=0;entryX=0;entryY=1;entryDx=0;entryDy=0;fontSize=12;startSize=8;endSize=8;endArrow=none;endFill=0;" parent="1" source="gxhyZ_KrEdZM4fqts1G2-31" target="gxhyZ_KrEdZM4fqts1G2-35" edge="1">
          <mxGeometry relative="1" as="geometry" />
        </mxCell>
        <mxCell id="F6LjRjJi2KFlLczRS62S-65" style="edgeStyle=none;curved=1;rounded=0;orthogonalLoop=1;jettySize=auto;html=1;exitX=0.5;exitY=0;exitDx=0;exitDy=0;entryX=1;entryY=1;entryDx=0;entryDy=0;fontSize=12;startSize=8;endSize=8;endArrow=none;endFill=0;" parent="1" source="gxhyZ_KrEdZM4fqts1G2-31" target="gxhyZ_KrEdZM4fqts1G2-32" edge="1">
          <mxGeometry relative="1" as="geometry" />
        </mxCell>
        <mxCell id="F6LjRjJi2KFlLczRS62S-66" style="edgeStyle=none;curved=1;rounded=0;orthogonalLoop=1;jettySize=auto;html=1;exitX=0.5;exitY=0;exitDx=0;exitDy=0;entryX=0;entryY=1;entryDx=0;entryDy=0;fontSize=12;startSize=8;endSize=8;endArrow=none;endFill=0;" parent="1" source="gxhyZ_KrEdZM4fqts1G2-31" target="gxhyZ_KrEdZM4fqts1G2-34" edge="1">
          <mxGeometry relative="1" as="geometry" />
        </mxCell>
        <mxCell id="gxhyZ_KrEdZM4fqts1G2-31" value="&lt;div&gt;Donación&lt;/div&gt;&lt;div&gt;Dinero&lt;br&gt;&lt;/div&gt;" style="rounded=0;whiteSpace=wrap;html=1;strokeWidth=3;" parent="1" vertex="1">
          <mxGeometry x="146" y="222" width="97" height="39" as="geometry" />
        </mxCell>
        <mxCell id="gxhyZ_KrEdZM4fqts1G2-32" value="monto" style="ellipse;whiteSpace=wrap;html=1;" parent="1" vertex="1">
          <mxGeometry x="82" y="115" width="104" height="40" as="geometry" />
        </mxCell>
        <mxCell id="gxhyZ_KrEdZM4fqts1G2-33" value="&lt;u&gt;nroDonación&lt;/u&gt;" style="ellipse;whiteSpace=wrap;html=1;" parent="1" vertex="1">
          <mxGeometry x="42" y="162" width="104" height="40" as="geometry" />
        </mxCell>
        <mxCell id="gxhyZ_KrEdZM4fqts1G2-34" value="esPresencial" style="ellipse;whiteSpace=wrap;html=1;" parent="1" vertex="1">
          <mxGeometry x="203" y="115" width="104" height="40" as="geometry" />
        </mxCell>
        <mxCell id="gxhyZ_KrEdZM4fqts1G2-35" value="fecha" style="ellipse;whiteSpace=wrap;html=1;" parent="1" vertex="1">
          <mxGeometry x="243" y="162" width="104" height="40" as="geometry" />
        </mxCell>
        <mxCell id="F6LjRjJi2KFlLczRS62S-27" style="edgeStyle=none;curved=1;rounded=0;orthogonalLoop=1;jettySize=auto;html=1;exitX=0.5;exitY=1;exitDx=0;exitDy=0;entryX=0.5;entryY=0;entryDx=0;entryDy=0;fontSize=12;startSize=8;endSize=8;endArrow=none;endFill=0;" parent="1" source="gxhyZ_KrEdZM4fqts1G2-40" target="F6LjRjJi2KFlLczRS62S-26" edge="1">
          <mxGeometry relative="1" as="geometry" />
        </mxCell>
        <mxCell id="F6LjRjJi2KFlLczRS62S-51" style="edgeStyle=none;curved=1;rounded=0;orthogonalLoop=1;jettySize=auto;html=1;exitX=0.5;exitY=0;exitDx=0;exitDy=0;entryX=1;entryY=1;entryDx=0;entryDy=0;fontSize=12;startSize=8;endSize=8;endArrow=none;endFill=0;" parent="1" source="gxhyZ_KrEdZM4fqts1G2-40" target="gxhyZ_KrEdZM4fqts1G2-42" edge="1">
          <mxGeometry relative="1" as="geometry" />
        </mxCell>
        <mxCell id="F6LjRjJi2KFlLczRS62S-52" style="edgeStyle=none;curved=1;rounded=0;orthogonalLoop=1;jettySize=auto;html=1;exitX=0.5;exitY=0;exitDx=0;exitDy=0;entryX=0.5;entryY=1;entryDx=0;entryDy=0;fontSize=12;startSize=8;endSize=8;endArrow=none;endFill=0;" parent="1" source="gxhyZ_KrEdZM4fqts1G2-40" target="gxhyZ_KrEdZM4fqts1G2-41" edge="1">
          <mxGeometry relative="1" as="geometry" />
        </mxCell>
        <mxCell id="F6LjRjJi2KFlLczRS62S-53" style="edgeStyle=none;curved=1;rounded=0;orthogonalLoop=1;jettySize=auto;html=1;exitX=0.5;exitY=0;exitDx=0;exitDy=0;entryX=0;entryY=1;entryDx=0;entryDy=0;fontSize=12;startSize=8;endSize=8;endArrow=none;endFill=0;" parent="1" source="gxhyZ_KrEdZM4fqts1G2-40" target="gxhyZ_KrEdZM4fqts1G2-43" edge="1">
          <mxGeometry relative="1" as="geometry" />
        </mxCell>
        <mxCell id="gxhyZ_KrEdZM4fqts1G2-40" value="Insumo" style="rounded=0;whiteSpace=wrap;html=1;strokeWidth=3;" parent="1" vertex="1">
          <mxGeometry x="-627" y="442" width="97" height="39" as="geometry" />
        </mxCell>
        <mxCell id="gxhyZ_KrEdZM4fqts1G2-41" value="nombre" style="ellipse;whiteSpace=wrap;html=1;" parent="1" vertex="1">
          <mxGeometry x="-631" y="333" width="104" height="40" as="geometry" />
        </mxCell>
        <mxCell id="gxhyZ_KrEdZM4fqts1G2-42" value="&lt;u&gt;nroInsumo&lt;/u&gt;" style="ellipse;whiteSpace=wrap;html=1;" parent="1" vertex="1">
          <mxGeometry x="-721" y="372" width="104" height="40" as="geometry" />
        </mxCell>
        <mxCell id="gxhyZ_KrEdZM4fqts1G2-43" value="descripción" style="ellipse;whiteSpace=wrap;html=1;" parent="1" vertex="1">
          <mxGeometry x="-540" y="372" width="104" height="40" as="geometry" />
        </mxCell>
        <mxCell id="F6LjRjJi2KFlLczRS62S-46" style="edgeStyle=none;curved=1;rounded=0;orthogonalLoop=1;jettySize=auto;html=1;exitX=0.5;exitY=0;exitDx=0;exitDy=0;entryX=1;entryY=1;entryDx=0;entryDy=0;fontSize=12;startSize=8;endSize=8;endArrow=none;endFill=0;" parent="1" source="gxhyZ_KrEdZM4fqts1G2-49" target="gxhyZ_KrEdZM4fqts1G2-51" edge="1">
          <mxGeometry relative="1" as="geometry" />
        </mxCell>
        <mxCell id="F6LjRjJi2KFlLczRS62S-47" style="edgeStyle=none;curved=1;rounded=0;orthogonalLoop=1;jettySize=auto;html=1;exitX=0.5;exitY=0;exitDx=0;exitDy=0;entryX=0.5;entryY=1;entryDx=0;entryDy=0;fontSize=12;startSize=8;endSize=8;endArrow=none;endFill=0;" parent="1" source="gxhyZ_KrEdZM4fqts1G2-49" target="gxhyZ_KrEdZM4fqts1G2-50" edge="1">
          <mxGeometry relative="1" as="geometry" />
        </mxCell>
        <mxCell id="F6LjRjJi2KFlLczRS62S-48" style="edgeStyle=none;curved=1;rounded=0;orthogonalLoop=1;jettySize=auto;html=1;exitX=0.5;exitY=0;exitDx=0;exitDy=0;entryX=0.5;entryY=1;entryDx=0;entryDy=0;fontSize=12;startSize=8;endSize=8;endArrow=none;endFill=0;" parent="1" source="gxhyZ_KrEdZM4fqts1G2-49" target="gxhyZ_KrEdZM4fqts1G2-52" edge="1">
          <mxGeometry relative="1" as="geometry" />
        </mxCell>
        <mxCell id="F6LjRjJi2KFlLczRS62S-50" style="edgeStyle=none;curved=1;rounded=0;orthogonalLoop=1;jettySize=auto;html=1;exitX=0.5;exitY=0;exitDx=0;exitDy=0;entryX=0;entryY=1;entryDx=0;entryDy=0;fontSize=12;startSize=8;endSize=8;endArrow=none;endFill=0;" parent="1" source="gxhyZ_KrEdZM4fqts1G2-49" target="gxhyZ_KrEdZM4fqts1G2-53" edge="1">
          <mxGeometry relative="1" as="geometry" />
        </mxCell>
        <mxCell id="gxhyZ_KrEdZM4fqts1G2-49" value="&lt;div&gt;Donación&lt;/div&gt;&lt;div&gt;Insumo&lt;br&gt;&lt;/div&gt;" style="rounded=0;whiteSpace=wrap;html=1;strokeWidth=3;" parent="1" vertex="1">
          <mxGeometry x="-627" y="222" width="97" height="39" as="geometry" />
        </mxCell>
        <mxCell id="gxhyZ_KrEdZM4fqts1G2-50" value="cantidad" style="ellipse;whiteSpace=wrap;html=1;" parent="1" vertex="1">
          <mxGeometry x="-682" y="115" width="104" height="40" as="geometry" />
        </mxCell>
        <mxCell id="gxhyZ_KrEdZM4fqts1G2-51" value="&lt;u&gt;nroDonación&lt;/u&gt;" style="ellipse;whiteSpace=wrap;html=1;" parent="1" vertex="1">
          <mxGeometry x="-731" y="162" width="104" height="40" as="geometry" />
        </mxCell>
        <mxCell id="gxhyZ_KrEdZM4fqts1G2-52" value="descripción" style="ellipse;whiteSpace=wrap;html=1;" parent="1" vertex="1">
          <mxGeometry x="-570" y="115" width="104" height="40" as="geometry" />
        </mxCell>
        <mxCell id="gxhyZ_KrEdZM4fqts1G2-53" value="fecha" style="ellipse;whiteSpace=wrap;html=1;" parent="1" vertex="1">
          <mxGeometry x="-530" y="162" width="104" height="40" as="geometry" />
        </mxCell>
        <mxCell id="F6LjRjJi2KFlLczRS62S-61" style="edgeStyle=none;curved=1;rounded=0;orthogonalLoop=1;jettySize=auto;html=1;exitX=0.5;exitY=0;exitDx=0;exitDy=0;entryX=1;entryY=1;entryDx=0;entryDy=0;fontSize=12;startSize=8;endSize=8;endArrow=none;endFill=0;" parent="1" source="gxhyZ_KrEdZM4fqts1G2-58" target="gxhyZ_KrEdZM4fqts1G2-60" edge="1">
          <mxGeometry relative="1" as="geometry" />
        </mxCell>
        <mxCell id="F6LjRjJi2KFlLczRS62S-62" style="edgeStyle=none;curved=1;rounded=0;orthogonalLoop=1;jettySize=auto;html=1;exitX=0.5;exitY=0;exitDx=0;exitDy=0;entryX=0;entryY=1;entryDx=0;entryDy=0;fontSize=12;startSize=8;endSize=8;endArrow=none;endFill=0;" parent="1" source="gxhyZ_KrEdZM4fqts1G2-58" target="gxhyZ_KrEdZM4fqts1G2-61" edge="1">
          <mxGeometry relative="1" as="geometry" />
        </mxCell>
        <mxCell id="gxhyZ_KrEdZM4fqts1G2-58" value="Vehículo" style="rounded=0;whiteSpace=wrap;html=1;strokeWidth=3;" parent="1" vertex="1">
          <mxGeometry x="143" y="653" width="97" height="39" as="geometry" />
        </mxCell>
        <mxCell id="gxhyZ_KrEdZM4fqts1G2-59" value="estado" style="ellipse;whiteSpace=wrap;html=1;" parent="1" vertex="1">
          <mxGeometry x="139.5" y="546" width="104" height="40" as="geometry" />
        </mxCell>
        <mxCell id="gxhyZ_KrEdZM4fqts1G2-60" value="&lt;u&gt;patente&lt;/u&gt;" style="ellipse;whiteSpace=wrap;html=1;" parent="1" vertex="1">
          <mxGeometry x="49" y="583" width="104" height="40" as="geometry" />
        </mxCell>
        <mxCell id="gxhyZ_KrEdZM4fqts1G2-61" value="fechaIngreso" style="ellipse;whiteSpace=wrap;html=1;" parent="1" vertex="1">
          <mxGeometry x="230" y="583" width="104" height="40" as="geometry" />
        </mxCell>
        <mxCell id="gxhyZ_KrEdZM4fqts1G2-62" style="edgeStyle=orthogonalEdgeStyle;rounded=0;orthogonalLoop=1;jettySize=auto;html=1;exitX=0.5;exitY=0;exitDx=0;exitDy=0;entryX=0.5;entryY=1;entryDx=0;entryDy=0;fontSize=12;startSize=8;endSize=8;endArrow=none;endFill=0;" parent="1" source="gxhyZ_KrEdZM4fqts1G2-58" target="gxhyZ_KrEdZM4fqts1G2-59" edge="1">
          <mxGeometry relative="1" as="geometry">
            <mxPoint x="216" y="514" as="sourcePoint" />
            <mxPoint x="167" y="474" as="targetPoint" />
          </mxGeometry>
        </mxCell>
        <mxCell id="F6LjRjJi2KFlLczRS62S-71" style="edgeStyle=none;curved=1;rounded=0;orthogonalLoop=1;jettySize=auto;html=1;exitX=0.5;exitY=0;exitDx=0;exitDy=0;entryX=1;entryY=1;entryDx=0;entryDy=0;fontSize=12;startSize=8;endSize=8;endArrow=none;endFill=0;" parent="1" source="gxhyZ_KrEdZM4fqts1G2-81" target="gxhyZ_KrEdZM4fqts1G2-83" edge="1">
          <mxGeometry relative="1" as="geometry" />
        </mxCell>
        <mxCell id="F6LjRjJi2KFlLczRS62S-72" style="edgeStyle=none;curved=1;rounded=0;orthogonalLoop=1;jettySize=auto;html=1;exitX=0.5;exitY=0;exitDx=0;exitDy=0;entryX=0;entryY=1;entryDx=0;entryDy=0;fontSize=12;startSize=8;endSize=8;endArrow=none;endFill=0;" parent="1" source="gxhyZ_KrEdZM4fqts1G2-81" target="gxhyZ_KrEdZM4fqts1G2-85" edge="1">
          <mxGeometry relative="1" as="geometry" />
        </mxCell>
        <mxCell id="F6LjRjJi2KFlLczRS62S-73" style="edgeStyle=none;curved=1;rounded=0;orthogonalLoop=1;jettySize=auto;html=1;exitX=0.5;exitY=0;exitDx=0;exitDy=0;entryX=1;entryY=1;entryDx=0;entryDy=0;fontSize=12;startSize=8;endSize=8;endArrow=none;endFill=0;" parent="1" source="gxhyZ_KrEdZM4fqts1G2-81" target="gxhyZ_KrEdZM4fqts1G2-82" edge="1">
          <mxGeometry relative="1" as="geometry" />
        </mxCell>
        <mxCell id="F6LjRjJi2KFlLczRS62S-74" style="edgeStyle=none;curved=1;rounded=0;orthogonalLoop=1;jettySize=auto;html=1;exitX=0.5;exitY=0;exitDx=0;exitDy=0;entryX=0;entryY=1;entryDx=0;entryDy=0;fontSize=12;startSize=8;endSize=8;endArrow=none;endFill=0;" parent="1" source="gxhyZ_KrEdZM4fqts1G2-81" target="gxhyZ_KrEdZM4fqts1G2-84" edge="1">
          <mxGeometry relative="1" as="geometry" />
        </mxCell>
        <mxCell id="gxhyZ_KrEdZM4fqts1G2-81" value="Gasto&lt;br&gt;Vehículo" style="rounded=0;whiteSpace=wrap;html=1;strokeWidth=3;" parent="1" vertex="1">
          <mxGeometry x="143" y="462" width="97" height="39" as="geometry" />
        </mxCell>
        <mxCell id="gxhyZ_KrEdZM4fqts1G2-82" value="monto" style="ellipse;whiteSpace=wrap;html=1;" parent="1" vertex="1">
          <mxGeometry x="49" y="345" width="104" height="40" as="geometry" />
        </mxCell>
        <mxCell id="gxhyZ_KrEdZM4fqts1G2-83" value="&lt;u&gt;nroGasto&lt;/u&gt;" style="ellipse;whiteSpace=wrap;html=1;" parent="1" vertex="1">
          <mxGeometry x="19" y="402" width="104" height="40" as="geometry" />
        </mxCell>
        <mxCell id="gxhyZ_KrEdZM4fqts1G2-84" value="tipo" style="ellipse;whiteSpace=wrap;html=1;" parent="1" vertex="1">
          <mxGeometry x="230" y="345" width="104" height="40" as="geometry" />
        </mxCell>
        <mxCell id="gxhyZ_KrEdZM4fqts1G2-85" value="fecha" style="ellipse;whiteSpace=wrap;html=1;" parent="1" vertex="1">
          <mxGeometry x="260" y="402" width="104" height="40" as="geometry" />
        </mxCell>
        <mxCell id="gxhyZ_KrEdZM4fqts1G2-92" style="edgeStyle=none;curved=1;rounded=0;orthogonalLoop=1;jettySize=auto;html=1;exitX=1;exitY=0.5;exitDx=0;exitDy=0;entryX=0;entryY=0.5;entryDx=0;entryDy=0;fontSize=12;startSize=8;endSize=8;endArrow=none;endFill=0;" parent="1" source="gxhyZ_KrEdZM4fqts1G2-90" target="gxhyZ_KrEdZM4fqts1G2-13" edge="1">
          <mxGeometry relative="1" as="geometry">
            <mxPoint x="26" y="41.5" as="sourcePoint" />
          </mxGeometry>
        </mxCell>
        <mxCell id="gxhyZ_KrEdZM4fqts1G2-112" value="N" style="edgeLabel;html=1;align=center;verticalAlign=middle;resizable=0;points=[];fontSize=12;" parent="gxhyZ_KrEdZM4fqts1G2-92" vertex="1" connectable="0">
          <mxGeometry x="-0.0364" y="1" relative="1" as="geometry">
            <mxPoint x="47" y="11" as="offset" />
          </mxGeometry>
        </mxCell>
        <mxCell id="gxhyZ_KrEdZM4fqts1G2-90" value="envía" style="rhombus;whiteSpace=wrap;html=1;" parent="1" vertex="1">
          <mxGeometry x="-44" y="1.5" width="80" height="80" as="geometry" />
        </mxCell>
        <mxCell id="gxhyZ_KrEdZM4fqts1G2-95" style="edgeStyle=none;curved=1;rounded=0;orthogonalLoop=1;jettySize=auto;html=1;exitX=0;exitY=0.5;exitDx=0;exitDy=0;entryX=1;entryY=0.5;entryDx=0;entryDy=0;fontSize=12;startSize=8;endSize=8;endArrow=none;endFill=0;strokeColor=#FFFFFF;strokeWidth=0;" parent="1" target="gxhyZ_KrEdZM4fqts1G2-22" edge="1">
          <mxGeometry relative="1" as="geometry">
            <mxPoint x="-441" y="42" as="sourcePoint" />
          </mxGeometry>
        </mxCell>
        <mxCell id="gxhyZ_KrEdZM4fqts1G2-110" value="N" style="edgeLabel;html=1;align=center;verticalAlign=middle;resizable=0;points=[];fontSize=12;" parent="gxhyZ_KrEdZM4fqts1G2-95" vertex="1" connectable="0">
          <mxGeometry x="-0.0321" y="-2" relative="1" as="geometry">
            <mxPoint x="-40" y="13" as="offset" />
          </mxGeometry>
        </mxCell>
        <mxCell id="gxhyZ_KrEdZM4fqts1G2-113" value="N" style="edgeLabel;html=1;align=center;verticalAlign=middle;resizable=0;points=[];fontSize=12;" parent="gxhyZ_KrEdZM4fqts1G2-95" vertex="1" connectable="0">
          <mxGeometry x="-0.0321" y="-2" relative="1" as="geometry">
            <mxPoint x="-36" y="183" as="offset" />
          </mxGeometry>
        </mxCell>
        <mxCell id="gxhyZ_KrEdZM4fqts1G2-118" value="N" style="edgeLabel;html=1;align=center;verticalAlign=middle;resizable=0;points=[];fontSize=12;" parent="gxhyZ_KrEdZM4fqts1G2-95" vertex="1" connectable="0">
          <mxGeometry x="-0.0321" y="-2" relative="1" as="geometry">
            <mxPoint x="622" y="212" as="offset" />
          </mxGeometry>
        </mxCell>
        <mxCell id="gxhyZ_KrEdZM4fqts1G2-132" value="N" style="edgeLabel;html=1;align=center;verticalAlign=middle;resizable=0;points=[];fontSize=12;" parent="gxhyZ_KrEdZM4fqts1G2-95" vertex="1" connectable="0">
          <mxGeometry x="-0.0321" y="-2" relative="1" as="geometry">
            <mxPoint x="734" y="451" as="offset" />
          </mxGeometry>
        </mxCell>
        <mxCell id="gxhyZ_KrEdZM4fqts1G2-137" value="N" style="edgeLabel;html=1;align=center;verticalAlign=middle;resizable=0;points=[];fontSize=12;" parent="gxhyZ_KrEdZM4fqts1G2-95" vertex="1" connectable="0">
          <mxGeometry x="-0.0321" y="-2" relative="1" as="geometry">
            <mxPoint x="618" y="452" as="offset" />
          </mxGeometry>
        </mxCell>
        <mxCell id="gxhyZ_KrEdZM4fqts1G2-138" value="N" style="edgeLabel;html=1;align=center;verticalAlign=middle;resizable=0;points=[];fontSize=12;" parent="gxhyZ_KrEdZM4fqts1G2-95" vertex="1" connectable="0">
          <mxGeometry x="-0.0321" y="-2" relative="1" as="geometry">
            <mxPoint x="618" y="643" as="offset" />
          </mxGeometry>
        </mxCell>
        <mxCell id="F6LjRjJi2KFlLczRS62S-11" value="1" style="edgeLabel;html=1;align=center;verticalAlign=middle;resizable=0;points=[];fontSize=12;" parent="gxhyZ_KrEdZM4fqts1G2-95" vertex="1" connectable="0">
          <mxGeometry x="-0.0321" y="-2" relative="1" as="geometry">
            <mxPoint x="343" y="643" as="offset" />
          </mxGeometry>
        </mxCell>
        <mxCell id="F6LjRjJi2KFlLczRS62S-19" value="N" style="edgeLabel;html=1;align=center;verticalAlign=middle;resizable=0;points=[];fontSize=12;" parent="gxhyZ_KrEdZM4fqts1G2-95" vertex="1" connectable="0">
          <mxGeometry x="-0.0321" y="-2" relative="1" as="geometry">
            <mxPoint x="295" y="34" as="offset" />
          </mxGeometry>
        </mxCell>
        <mxCell id="F6LjRjJi2KFlLczRS62S-30" value="N" style="edgeLabel;html=1;align=center;verticalAlign=middle;resizable=0;points=[];fontSize=12;" parent="gxhyZ_KrEdZM4fqts1G2-95" vertex="1" connectable="0">
          <mxGeometry x="-0.0321" y="-2" relative="1" as="geometry">
            <mxPoint x="-84" y="454" as="offset" />
          </mxGeometry>
        </mxCell>
        <mxCell id="F6LjRjJi2KFlLczRS62S-40" value="N" style="edgeLabel;html=1;align=center;verticalAlign=middle;resizable=0;points=[];fontSize=12;" parent="gxhyZ_KrEdZM4fqts1G2-95" vertex="1" connectable="0">
          <mxGeometry x="-0.0321" y="-2" relative="1" as="geometry">
            <mxPoint x="-156" y="12" as="offset" />
          </mxGeometry>
        </mxCell>
        <mxCell id="gxhyZ_KrEdZM4fqts1G2-96" value="registra" style="rhombus;whiteSpace=wrap;html=1;" parent="1" vertex="1">
          <mxGeometry x="-371" y="104" width="80" height="80" as="geometry" />
        </mxCell>
        <mxCell id="gxhyZ_KrEdZM4fqts1G2-101" style="edgeStyle=none;curved=1;rounded=0;orthogonalLoop=1;jettySize=auto;html=1;exitX=1;exitY=0.5;exitDx=0;exitDy=0;fontSize=12;startSize=8;endSize=8;endArrow=none;endFill=0;entryX=0;entryY=0.5;entryDx=0;entryDy=0;" parent="1" source="gxhyZ_KrEdZM4fqts1G2-97" target="gxhyZ_KrEdZM4fqts1G2-31" edge="1">
          <mxGeometry relative="1" as="geometry">
            <mxPoint x="26" y="240.5" as="sourcePoint" />
            <mxPoint x="120" y="241" as="targetPoint" />
          </mxGeometry>
        </mxCell>
        <mxCell id="gxhyZ_KrEdZM4fqts1G2-97" value="envía" style="rhombus;whiteSpace=wrap;html=1;" parent="1" vertex="1">
          <mxGeometry x="-44" y="200.5" width="80" height="80" as="geometry" />
        </mxCell>
        <mxCell id="gxhyZ_KrEdZM4fqts1G2-98" style="edgeStyle=orthogonalEdgeStyle;rounded=0;orthogonalLoop=1;jettySize=auto;html=1;exitX=0.5;exitY=1;exitDx=0;exitDy=0;fontSize=12;startSize=8;endSize=8;endArrow=none;endFill=0;entryX=1;entryY=0.25;entryDx=0;entryDy=0;" parent="1" source="gxhyZ_KrEdZM4fqts1G2-96" target="gxhyZ_KrEdZM4fqts1G2-49" edge="1">
          <mxGeometry relative="1" as="geometry">
            <mxPoint x="-441" y="241" as="sourcePoint" />
            <mxPoint x="-523" y="241.5" as="targetPoint" />
            <Array as="points">
              <mxPoint x="-331" y="232" />
            </Array>
          </mxGeometry>
        </mxCell>
        <mxCell id="gxhyZ_KrEdZM4fqts1G2-100" style="edgeStyle=orthogonalEdgeStyle;rounded=0;orthogonalLoop=1;jettySize=auto;html=1;exitX=0.5;exitY=1;exitDx=0;exitDy=0;entryX=1;entryY=0.5;entryDx=0;entryDy=0;fontSize=12;startSize=8;endSize=8;endArrow=none;endFill=0;" parent="1" source="gxhyZ_KrEdZM4fqts1G2-1" target="gxhyZ_KrEdZM4fqts1G2-96" edge="1">
          <mxGeometry relative="1" as="geometry">
            <mxPoint x="-189" y="71" as="sourcePoint" />
            <mxPoint x="-24" y="331" as="targetPoint" />
            <Array as="points">
              <mxPoint x="-219" y="61" />
              <mxPoint x="-219" y="144" />
            </Array>
          </mxGeometry>
        </mxCell>
        <mxCell id="gxhyZ_KrEdZM4fqts1G2-102" value="rol" style="ellipse;whiteSpace=wrap;html=1;" parent="1" vertex="1">
          <mxGeometry x="-251.5" y="-124" width="104" height="40" as="geometry" />
        </mxCell>
        <mxCell id="gxhyZ_KrEdZM4fqts1G2-104" value="descripción" style="ellipse;whiteSpace=wrap;html=1;" parent="1" vertex="1">
          <mxGeometry x="203" y="-85" width="104" height="40" as="geometry" />
        </mxCell>
        <mxCell id="gxhyZ_KrEdZM4fqts1G2-106" value="estado" style="ellipse;whiteSpace=wrap;html=1;" parent="1" vertex="1">
          <mxGeometry x="-688" y="-85" width="104" height="40" as="geometry" />
        </mxCell>
        <mxCell id="gxhyZ_KrEdZM4fqts1G2-120" style="edgeStyle=orthogonalEdgeStyle;rounded=0;orthogonalLoop=1;jettySize=auto;html=1;exitX=0.5;exitY=0;exitDx=0;exitDy=0;entryX=1;entryY=0.75;entryDx=0;entryDy=0;fontSize=12;startSize=8;endSize=8;endArrow=none;endFill=0;" parent="1" source="gxhyZ_KrEdZM4fqts1G2-119" target="gxhyZ_KrEdZM4fqts1G2-49" edge="1">
          <mxGeometry relative="1" as="geometry" />
        </mxCell>
        <mxCell id="gxhyZ_KrEdZM4fqts1G2-121" style="edgeStyle=orthogonalEdgeStyle;rounded=0;orthogonalLoop=1;jettySize=auto;html=1;exitX=0.5;exitY=1;exitDx=0;exitDy=0;entryX=1;entryY=0.5;entryDx=0;entryDy=0;fontSize=12;startSize=8;endSize=8;endArrow=none;endFill=0;" parent="1" source="gxhyZ_KrEdZM4fqts1G2-119" target="gxhyZ_KrEdZM4fqts1G2-40" edge="1">
          <mxGeometry relative="1" as="geometry" />
        </mxCell>
        <mxCell id="gxhyZ_KrEdZM4fqts1G2-119" value="tiene" style="rhombus;whiteSpace=wrap;html=1;" parent="1" vertex="1">
          <mxGeometry x="-371" y="315" width="80" height="80" as="geometry" />
        </mxCell>
        <mxCell id="gxhyZ_KrEdZM4fqts1G2-125" style="edgeStyle=none;curved=1;rounded=0;orthogonalLoop=1;jettySize=auto;html=1;exitX=0.5;exitY=1;exitDx=0;exitDy=0;entryX=0.5;entryY=0;entryDx=0;entryDy=0;fontSize=12;startSize=8;endSize=8;endArrow=none;endFill=0;" parent="1" source="gxhyZ_KrEdZM4fqts1G2-124" target="gxhyZ_KrEdZM4fqts1G2-81" edge="1">
          <mxGeometry relative="1" as="geometry" />
        </mxCell>
        <mxCell id="gxhyZ_KrEdZM4fqts1G2-124" value="observación" style="ellipse;whiteSpace=wrap;html=1;" parent="1" vertex="1">
          <mxGeometry x="139.5" y="305" width="104" height="40" as="geometry" />
        </mxCell>
        <mxCell id="gxhyZ_KrEdZM4fqts1G2-127" style="edgeStyle=none;curved=1;rounded=0;orthogonalLoop=1;jettySize=auto;html=1;exitX=1;exitY=0.5;exitDx=0;exitDy=0;entryX=0;entryY=0.5;entryDx=0;entryDy=0;fontSize=12;startSize=8;endSize=8;endArrow=none;endFill=0;" parent="1" source="gxhyZ_KrEdZM4fqts1G2-126" target="gxhyZ_KrEdZM4fqts1G2-81" edge="1">
          <mxGeometry relative="1" as="geometry" />
        </mxCell>
        <mxCell id="gxhyZ_KrEdZM4fqts1G2-126" value="registra" style="rhombus;whiteSpace=wrap;html=1;" parent="1" vertex="1">
          <mxGeometry x="-44" y="442" width="80" height="80" as="geometry" />
        </mxCell>
        <mxCell id="gxhyZ_KrEdZM4fqts1G2-129" value="tiene" style="rhombus;whiteSpace=wrap;html=1;" parent="1" vertex="1">
          <mxGeometry x="359" y="526" width="80" height="80" as="geometry" />
        </mxCell>
        <mxCell id="gxhyZ_KrEdZM4fqts1G2-130" style="edgeStyle=orthogonalEdgeStyle;rounded=0;orthogonalLoop=1;jettySize=auto;html=1;exitX=1;exitY=0.5;exitDx=0;exitDy=0;entryX=0.5;entryY=0;entryDx=0;entryDy=0;fontSize=12;startSize=8;endSize=8;endArrow=none;endFill=0;" parent="1" source="gxhyZ_KrEdZM4fqts1G2-81" target="gxhyZ_KrEdZM4fqts1G2-129" edge="1">
          <mxGeometry relative="1" as="geometry">
            <mxPoint x="439" y="471" as="sourcePoint" />
            <mxPoint x="604" y="428" as="targetPoint" />
          </mxGeometry>
        </mxCell>
        <mxCell id="gxhyZ_KrEdZM4fqts1G2-131" style="edgeStyle=orthogonalEdgeStyle;rounded=0;orthogonalLoop=1;jettySize=auto;html=1;exitX=1;exitY=0.5;exitDx=0;exitDy=0;entryX=0.5;entryY=1;entryDx=0;entryDy=0;fontSize=12;startSize=8;endSize=8;endArrow=none;endFill=0;" parent="1" source="gxhyZ_KrEdZM4fqts1G2-58" target="gxhyZ_KrEdZM4fqts1G2-129" edge="1">
          <mxGeometry relative="1" as="geometry">
            <mxPoint x="308" y="723" as="sourcePoint" />
            <mxPoint x="467" y="767" as="targetPoint" />
          </mxGeometry>
        </mxCell>
        <mxCell id="gxhyZ_KrEdZM4fqts1G2-135" style="edgeStyle=none;curved=1;rounded=0;orthogonalLoop=1;jettySize=auto;html=1;exitX=1;exitY=0.5;exitDx=0;exitDy=0;entryX=0;entryY=0.5;entryDx=0;entryDy=0;fontSize=12;startSize=8;endSize=8;endArrow=none;endFill=0;" parent="1" source="gxhyZ_KrEdZM4fqts1G2-134" target="gxhyZ_KrEdZM4fqts1G2-58" edge="1">
          <mxGeometry relative="1" as="geometry" />
        </mxCell>
        <mxCell id="F6LjRjJi2KFlLczRS62S-14" style="edgeStyle=none;curved=1;rounded=0;orthogonalLoop=1;jettySize=auto;html=1;exitX=0;exitY=0.5;exitDx=0;exitDy=0;fontSize=12;startSize=8;endSize=8;endArrow=none;endFill=0;" parent="1" source="gxhyZ_KrEdZM4fqts1G2-134" target="F6LjRjJi2KFlLczRS62S-3" edge="1">
          <mxGeometry relative="1" as="geometry" />
        </mxCell>
        <mxCell id="gxhyZ_KrEdZM4fqts1G2-134" value="almacena" style="rhombus;whiteSpace=wrap;html=1;" parent="1" vertex="1">
          <mxGeometry x="-44" y="632.5" width="80" height="80" as="geometry" />
        </mxCell>
        <mxCell id="F6LjRjJi2KFlLczRS62S-23" style="edgeStyle=none;curved=1;rounded=0;orthogonalLoop=1;jettySize=auto;html=1;exitX=0.5;exitY=1;exitDx=0;exitDy=0;entryX=0.5;entryY=0;entryDx=0;entryDy=0;fontSize=12;startSize=8;endSize=8;endArrow=none;endFill=0;" parent="1" source="F6LjRjJi2KFlLczRS62S-3" target="F6LjRjJi2KFlLczRS62S-12" edge="1">
          <mxGeometry relative="1" as="geometry" />
        </mxCell>
        <mxCell id="F6LjRjJi2KFlLczRS62S-59" style="edgeStyle=none;curved=1;rounded=0;orthogonalLoop=1;jettySize=auto;html=1;exitX=0.5;exitY=1;exitDx=0;exitDy=0;entryX=1;entryY=0;entryDx=0;entryDy=0;fontSize=12;startSize=8;endSize=8;endArrow=none;endFill=0;" parent="1" source="F6LjRjJi2KFlLczRS62S-3" target="F6LjRjJi2KFlLczRS62S-5" edge="1">
          <mxGeometry relative="1" as="geometry" />
        </mxCell>
        <mxCell id="F6LjRjJi2KFlLczRS62S-60" style="edgeStyle=none;curved=1;rounded=0;orthogonalLoop=1;jettySize=auto;html=1;exitX=0.5;exitY=1;exitDx=0;exitDy=0;entryX=0;entryY=0;entryDx=0;entryDy=0;fontSize=12;startSize=8;endSize=8;endArrow=none;endFill=0;" parent="1" source="F6LjRjJi2KFlLczRS62S-3" target="F6LjRjJi2KFlLczRS62S-7" edge="1">
          <mxGeometry relative="1" as="geometry" />
        </mxCell>
        <mxCell id="F6LjRjJi2KFlLczRS62S-3" value="Refugio" style="rounded=0;whiteSpace=wrap;html=1;strokeWidth=3;" parent="1" vertex="1">
          <mxGeometry x="-248" y="653" width="97" height="39" as="geometry" />
        </mxCell>
        <mxCell id="F6LjRjJi2KFlLczRS62S-5" value="&lt;u&gt;nroRefugio&lt;/u&gt;" style="ellipse;whiteSpace=wrap;html=1;" parent="1" vertex="1">
          <mxGeometry x="-352" y="713" width="104" height="40" as="geometry" />
        </mxCell>
        <mxCell id="F6LjRjJi2KFlLczRS62S-7" value="dirección" style="ellipse;whiteSpace=wrap;html=1;" parent="1" vertex="1">
          <mxGeometry x="-151" y="713" width="104" height="40" as="geometry" />
        </mxCell>
        <mxCell id="F6LjRjJi2KFlLczRS62S-12" value="nombre" style="ellipse;whiteSpace=wrap;html=1;" parent="1" vertex="1">
          <mxGeometry x="-251.5" y="753" width="104" height="40" as="geometry" />
        </mxCell>
        <mxCell id="F6LjRjJi2KFlLczRS62S-18" style="edgeStyle=none;curved=1;rounded=0;orthogonalLoop=1;jettySize=auto;html=1;exitX=0.5;exitY=1;exitDx=0;exitDy=0;entryX=0.5;entryY=0;entryDx=0;entryDy=0;fontSize=12;startSize=8;endSize=8;endArrow=none;endFill=0;" parent="1" source="F6LjRjJi2KFlLczRS62S-15" target="F6LjRjJi2KFlLczRS62S-3" edge="1">
          <mxGeometry relative="1" as="geometry" />
        </mxCell>
        <mxCell id="F6LjRjJi2KFlLczRS62S-15" value="trabaja" style="rhombus;whiteSpace=wrap;html=1;" parent="1" vertex="1">
          <mxGeometry x="-239.5" y="513" width="80" height="80" as="geometry" />
        </mxCell>
        <mxCell id="F6LjRjJi2KFlLczRS62S-20" value="descripción" style="ellipse;whiteSpace=wrap;html=1;" parent="1" vertex="1">
          <mxGeometry x="-578" y="-85" width="104" height="40" as="geometry" />
        </mxCell>
        <mxCell id="F6LjRjJi2KFlLczRS62S-28" style="edgeStyle=orthogonalEdgeStyle;rounded=0;orthogonalLoop=1;jettySize=auto;html=1;exitX=0.5;exitY=1;exitDx=0;exitDy=0;entryX=0;entryY=0.25;entryDx=0;entryDy=0;fontSize=12;startSize=8;endSize=8;endArrow=none;endFill=0;" parent="1" source="F6LjRjJi2KFlLczRS62S-26" target="F6LjRjJi2KFlLczRS62S-3" edge="1">
          <mxGeometry relative="1" as="geometry" />
        </mxCell>
        <mxCell id="F6LjRjJi2KFlLczRS62S-26" value="almacena" style="rhombus;whiteSpace=wrap;html=1;" parent="1" vertex="1">
          <mxGeometry x="-618.5" y="531" width="80" height="80" as="geometry" />
        </mxCell>
        <mxCell id="F6LjRjJi2KFlLczRS62S-31" style="edgeStyle=none;curved=1;rounded=0;orthogonalLoop=1;jettySize=auto;html=1;exitX=0.5;exitY=0;exitDx=0;exitDy=0;fontSize=12;startSize=8;endSize=8;" parent="1" source="gxhyZ_KrEdZM4fqts1G2-96" target="gxhyZ_KrEdZM4fqts1G2-96" edge="1">
          <mxGeometry relative="1" as="geometry" />
        </mxCell>
        <mxCell id="F6LjRjJi2KFlLczRS62S-37" style="edgeStyle=orthogonalEdgeStyle;rounded=0;orthogonalLoop=1;jettySize=auto;html=1;exitX=0.5;exitY=1;exitDx=0;exitDy=0;entryX=0;entryY=0.75;entryDx=0;entryDy=0;fontSize=12;startSize=8;endSize=8;endArrow=none;endFill=0;" parent="1" source="F6LjRjJi2KFlLczRS62S-34" target="F6LjRjJi2KFlLczRS62S-3" edge="1">
          <mxGeometry relative="1" as="geometry" />
        </mxCell>
        <mxCell id="F6LjRjJi2KFlLczRS62S-38" style="edgeStyle=orthogonalEdgeStyle;rounded=0;orthogonalLoop=1;jettySize=auto;html=1;exitX=0.5;exitY=0;exitDx=0;exitDy=0;entryX=0;entryY=0.5;entryDx=0;entryDy=0;fontSize=12;startSize=8;endSize=8;endArrow=none;endFill=0;" parent="1" source="F6LjRjJi2KFlLczRS62S-34" target="gxhyZ_KrEdZM4fqts1G2-22" edge="1">
          <mxGeometry relative="1" as="geometry" />
        </mxCell>
        <mxCell id="F6LjRjJi2KFlLczRS62S-34" value="alberga" style="rhombus;whiteSpace=wrap;html=1;" parent="1" vertex="1">
          <mxGeometry x="-792" y="531" width="80" height="80" as="geometry" />
        </mxCell>
        <mxCell id="DgqKghVQSb-tML7D4mr0-16" style="edgeStyle=none;curved=1;rounded=0;orthogonalLoop=1;jettySize=auto;html=1;exitX=0.5;exitY=1;exitDx=0;exitDy=0;entryX=0.5;entryY=0;entryDx=0;entryDy=0;fontSize=12;startSize=8;endSize=8;endArrow=none;endFill=0;" parent="1" source="OiOX3Y-eicw3onZXfL4D-20" target="DgqKghVQSb-tML7D4mr0-13" edge="1">
          <mxGeometry relative="1" as="geometry" />
        </mxCell>
        <mxCell id="DgqKghVQSb-tML7D4mr0-17" value="tipo" style="edgeLabel;html=1;align=center;verticalAlign=middle;resizable=0;points=[];fontSize=12;" parent="DgqKghVQSb-tML7D4mr0-16" vertex="1" connectable="0">
          <mxGeometry x="-0.0645" relative="1" as="geometry">
            <mxPoint x="17" y="2" as="offset" />
          </mxGeometry>
        </mxCell>
        <mxCell id="OiOX3Y-eicw3onZXfL4D-20" value="Usuario" style="rounded=0;whiteSpace=wrap;html=1;strokeWidth=3;" parent="1" vertex="1">
          <mxGeometry x="1289" y="-293" width="97" height="39" as="geometry" />
        </mxCell>
        <mxCell id="DgqKghVQSb-tML7D4mr0-55" style="edgeStyle=none;curved=1;rounded=0;orthogonalLoop=1;jettySize=auto;html=1;exitX=1;exitY=0.5;exitDx=0;exitDy=0;entryX=0;entryY=0.5;entryDx=0;entryDy=0;fontSize=12;startSize=8;endSize=8;endArrow=none;endFill=0;" parent="1" source="OiOX3Y-eicw3onZXfL4D-29" target="DgqKghVQSb-tML7D4mr0-51" edge="1">
          <mxGeometry relative="1" as="geometry" />
        </mxCell>
        <mxCell id="DgqKghVQSb-tML7D4mr0-56" style="edgeStyle=none;curved=1;rounded=0;orthogonalLoop=1;jettySize=auto;html=1;exitX=1;exitY=0.5;exitDx=0;exitDy=0;entryX=0;entryY=0.5;entryDx=0;entryDy=0;fontSize=12;startSize=8;endSize=8;endArrow=none;endFill=0;" parent="1" source="OiOX3Y-eicw3onZXfL4D-29" target="DgqKghVQSb-tML7D4mr0-52" edge="1">
          <mxGeometry relative="1" as="geometry" />
        </mxCell>
        <mxCell id="DgqKghVQSb-tML7D4mr0-57" style="edgeStyle=none;curved=1;rounded=0;orthogonalLoop=1;jettySize=auto;html=1;exitX=1;exitY=0.5;exitDx=0;exitDy=0;entryX=0;entryY=0.5;entryDx=0;entryDy=0;fontSize=12;startSize=8;endSize=8;endArrow=none;endFill=0;" parent="1" source="OiOX3Y-eicw3onZXfL4D-29" target="DgqKghVQSb-tML7D4mr0-53" edge="1">
          <mxGeometry relative="1" as="geometry" />
        </mxCell>
        <mxCell id="DgqKghVQSb-tML7D4mr0-58" style="edgeStyle=none;curved=1;rounded=0;orthogonalLoop=1;jettySize=auto;html=1;exitX=1;exitY=0.5;exitDx=0;exitDy=0;entryX=0;entryY=0.5;entryDx=0;entryDy=0;fontSize=12;startSize=8;endSize=8;endArrow=none;endFill=0;" parent="1" source="OiOX3Y-eicw3onZXfL4D-29" target="DgqKghVQSb-tML7D4mr0-54" edge="1">
          <mxGeometry relative="1" as="geometry" />
        </mxCell>
        <mxCell id="OiOX3Y-eicw3onZXfL4D-29" value="Caso" style="rounded=0;whiteSpace=wrap;html=1;strokeWidth=3;" parent="1" vertex="1">
          <mxGeometry x="961" y="143" width="97" height="39" as="geometry" />
        </mxCell>
        <mxCell id="DgqKghVQSb-tML7D4mr0-123" style="edgeStyle=none;curved=1;rounded=0;orthogonalLoop=1;jettySize=auto;html=1;exitX=1;exitY=0.5;exitDx=0;exitDy=0;entryX=0;entryY=0.5;entryDx=0;entryDy=0;fontSize=12;startSize=8;endSize=8;endArrow=none;endFill=0;" parent="1" source="OiOX3Y-eicw3onZXfL4D-38" target="DgqKghVQSb-tML7D4mr0-97" edge="1">
          <mxGeometry relative="1" as="geometry" />
        </mxCell>
        <mxCell id="DgqKghVQSb-tML7D4mr0-124" style="edgeStyle=none;curved=1;rounded=0;orthogonalLoop=1;jettySize=auto;html=1;exitX=1;exitY=0.5;exitDx=0;exitDy=0;entryX=0;entryY=0.5;entryDx=0;entryDy=0;fontSize=12;startSize=8;endSize=8;endArrow=none;endFill=0;" parent="1" source="OiOX3Y-eicw3onZXfL4D-38" target="DgqKghVQSb-tML7D4mr0-98" edge="1">
          <mxGeometry relative="1" as="geometry" />
        </mxCell>
        <mxCell id="DgqKghVQSb-tML7D4mr0-125" style="edgeStyle=none;curved=1;rounded=0;orthogonalLoop=1;jettySize=auto;html=1;exitX=1;exitY=0.5;exitDx=0;exitDy=0;entryX=0;entryY=0.5;entryDx=0;entryDy=0;fontSize=12;startSize=8;endSize=8;endArrow=none;endFill=0;" parent="1" source="OiOX3Y-eicw3onZXfL4D-38" target="DgqKghVQSb-tML7D4mr0-99" edge="1">
          <mxGeometry relative="1" as="geometry" />
        </mxCell>
        <mxCell id="DgqKghVQSb-tML7D4mr0-147" style="edgeStyle=orthogonalEdgeStyle;rounded=0;orthogonalLoop=1;jettySize=auto;html=1;entryX=1;entryY=0.5;entryDx=0;entryDy=0;fontSize=12;startSize=8;endSize=8;endArrow=none;endFill=0;" parent="1" target="DgqKghVQSb-tML7D4mr0-145" edge="1">
          <mxGeometry relative="1" as="geometry">
            <Array as="points">
              <mxPoint x="1630" y="216" />
            </Array>
            <mxPoint x="1630" y="348" as="sourcePoint" />
          </mxGeometry>
        </mxCell>
        <mxCell id="DgqKghVQSb-tML7D4mr0-153" style="rounded=0;orthogonalLoop=1;jettySize=auto;html=1;entryX=0.5;entryY=1;entryDx=0;entryDy=0;fontSize=12;startSize=8;endSize=8;endArrow=none;endFill=0;exitX=0.5;exitY=0;exitDx=0;exitDy=0;" parent="1" source="OiOX3Y-eicw3onZXfL4D-38" target="DgqKghVQSb-tML7D4mr0-151" edge="1">
          <mxGeometry relative="1" as="geometry">
            <mxPoint x="1644" y="346" as="sourcePoint" />
          </mxGeometry>
        </mxCell>
        <mxCell id="OiOX3Y-eicw3onZXfL4D-38" value="Misión" style="rounded=0;whiteSpace=wrap;html=1;strokeWidth=3;" parent="1" vertex="1">
          <mxGeometry x="1606" y="348" width="97" height="39" as="geometry" />
        </mxCell>
        <mxCell id="DgqKghVQSb-tML7D4mr0-130" style="edgeStyle=none;curved=1;rounded=0;orthogonalLoop=1;jettySize=auto;html=1;exitX=1;exitY=0.5;exitDx=0;exitDy=0;entryX=0;entryY=0.5;entryDx=0;entryDy=0;fontSize=12;startSize=8;endSize=8;endArrow=none;endFill=0;" parent="1" source="OiOX3Y-eicw3onZXfL4D-54" target="DgqKghVQSb-tML7D4mr0-104" edge="1">
          <mxGeometry relative="1" as="geometry" />
        </mxCell>
        <mxCell id="DgqKghVQSb-tML7D4mr0-131" style="edgeStyle=none;curved=1;rounded=0;orthogonalLoop=1;jettySize=auto;html=1;exitX=1;exitY=0.5;exitDx=0;exitDy=0;entryX=0;entryY=0.5;entryDx=0;entryDy=0;fontSize=12;startSize=8;endSize=8;endArrow=none;endFill=0;" parent="1" source="OiOX3Y-eicw3onZXfL4D-54" target="DgqKghVQSb-tML7D4mr0-105" edge="1">
          <mxGeometry relative="1" as="geometry" />
        </mxCell>
        <mxCell id="DgqKghVQSb-tML7D4mr0-132" style="edgeStyle=none;curved=1;rounded=0;orthogonalLoop=1;jettySize=auto;html=1;exitX=1;exitY=0.5;exitDx=0;exitDy=0;entryX=0;entryY=0.5;entryDx=0;entryDy=0;fontSize=12;startSize=8;endSize=8;endArrow=none;endFill=0;" parent="1" source="OiOX3Y-eicw3onZXfL4D-54" target="DgqKghVQSb-tML7D4mr0-106" edge="1">
          <mxGeometry relative="1" as="geometry" />
        </mxCell>
        <mxCell id="OiOX3Y-eicw3onZXfL4D-54" value="Insumo" style="rounded=0;whiteSpace=wrap;html=1;strokeWidth=3;" parent="1" vertex="1">
          <mxGeometry x="2160" y="348" width="97" height="39" as="geometry" />
        </mxCell>
        <mxCell id="DgqKghVQSb-tML7D4mr0-120" style="edgeStyle=none;curved=1;rounded=0;orthogonalLoop=1;jettySize=auto;html=1;exitX=1;exitY=0.5;exitDx=0;exitDy=0;entryX=0;entryY=0.5;entryDx=0;entryDy=0;fontSize=12;startSize=8;endSize=8;endArrow=none;endFill=0;" parent="1" source="OiOX3Y-eicw3onZXfL4D-69" target="DgqKghVQSb-tML7D4mr0-113" edge="1">
          <mxGeometry relative="1" as="geometry" />
        </mxCell>
        <mxCell id="DgqKghVQSb-tML7D4mr0-121" style="edgeStyle=none;curved=1;rounded=0;orthogonalLoop=1;jettySize=auto;html=1;exitX=1;exitY=0.5;exitDx=0;exitDy=0;entryX=0;entryY=0.5;entryDx=0;entryDy=0;fontSize=12;startSize=8;endSize=8;endArrow=none;endFill=0;" parent="1" source="OiOX3Y-eicw3onZXfL4D-69" target="DgqKghVQSb-tML7D4mr0-114" edge="1">
          <mxGeometry relative="1" as="geometry" />
        </mxCell>
        <mxCell id="DgqKghVQSb-tML7D4mr0-122" style="edgeStyle=none;curved=1;rounded=0;orthogonalLoop=1;jettySize=auto;html=1;exitX=1;exitY=0.5;exitDx=0;exitDy=0;entryX=0;entryY=0.5;entryDx=0;entryDy=0;fontSize=12;startSize=8;endSize=8;endArrow=none;endFill=0;" parent="1" source="OiOX3Y-eicw3onZXfL4D-69" target="DgqKghVQSb-tML7D4mr0-115" edge="1">
          <mxGeometry relative="1" as="geometry" />
        </mxCell>
        <mxCell id="DgqKghVQSb-tML7D4mr0-148" style="edgeStyle=orthogonalEdgeStyle;rounded=0;orthogonalLoop=1;jettySize=auto;html=1;exitX=0.75;exitY=0;exitDx=0;exitDy=0;fontSize=12;startSize=8;endSize=8;entryX=0;entryY=0.5;entryDx=0;entryDy=0;endArrow=none;endFill=0;" parent="1" source="OiOX3Y-eicw3onZXfL4D-69" target="DgqKghVQSb-tML7D4mr0-145" edge="1">
          <mxGeometry relative="1" as="geometry">
            <mxPoint x="1516" y="111" as="targetPoint" />
          </mxGeometry>
        </mxCell>
        <mxCell id="Q6MzQbn6rYoNHMJF28ys-1" style="edgeStyle=orthogonalEdgeStyle;rounded=0;orthogonalLoop=1;jettySize=auto;html=1;exitX=0.5;exitY=1;exitDx=0;exitDy=0;entryX=0.75;entryY=1;entryDx=0;entryDy=0;fontSize=12;startSize=8;endSize=8;endArrow=none;endFill=0;" edge="1" parent="1" source="OiOX3Y-eicw3onZXfL4D-69" target="OiOX3Y-eicw3onZXfL4D-121">
          <mxGeometry relative="1" as="geometry">
            <Array as="points">
              <mxPoint x="1377" y="646" />
              <mxPoint x="2461" y="646" />
              <mxPoint x="2461" y="112" />
              <mxPoint x="2257" y="112" />
            </Array>
          </mxGeometry>
        </mxCell>
        <mxCell id="OiOX3Y-eicw3onZXfL4D-69" value="Vehículo" style="rounded=0;whiteSpace=wrap;html=1;strokeWidth=3;" parent="1" vertex="1">
          <mxGeometry x="1328" y="347.5" width="97" height="39" as="geometry" />
        </mxCell>
        <mxCell id="DgqKghVQSb-tML7D4mr0-133" style="edgeStyle=none;curved=1;rounded=0;orthogonalLoop=1;jettySize=auto;html=1;exitX=1;exitY=0.5;exitDx=0;exitDy=0;entryX=0;entryY=0.5;entryDx=0;entryDy=0;fontSize=12;startSize=8;endSize=8;endArrow=none;endFill=0;" parent="1" source="OiOX3Y-eicw3onZXfL4D-78" target="DgqKghVQSb-tML7D4mr0-107" edge="1">
          <mxGeometry relative="1" as="geometry" />
        </mxCell>
        <mxCell id="DgqKghVQSb-tML7D4mr0-134" style="edgeStyle=none;curved=1;rounded=0;orthogonalLoop=1;jettySize=auto;html=1;exitX=1;exitY=0.5;exitDx=0;exitDy=0;entryX=0;entryY=0.5;entryDx=0;entryDy=0;fontSize=12;startSize=8;endSize=8;endArrow=none;endFill=0;" parent="1" source="OiOX3Y-eicw3onZXfL4D-78" target="DgqKghVQSb-tML7D4mr0-108" edge="1">
          <mxGeometry relative="1" as="geometry" />
        </mxCell>
        <mxCell id="DgqKghVQSb-tML7D4mr0-135" style="edgeStyle=none;curved=1;rounded=0;orthogonalLoop=1;jettySize=auto;html=1;exitX=1;exitY=0.5;exitDx=0;exitDy=0;entryX=0;entryY=0.5;entryDx=0;entryDy=0;fontSize=12;startSize=8;endSize=8;endArrow=none;endFill=0;" parent="1" source="OiOX3Y-eicw3onZXfL4D-78" target="DgqKghVQSb-tML7D4mr0-109" edge="1">
          <mxGeometry relative="1" as="geometry" />
        </mxCell>
        <mxCell id="DgqKghVQSb-tML7D4mr0-136" style="edgeStyle=none;curved=1;rounded=0;orthogonalLoop=1;jettySize=auto;html=1;exitX=1;exitY=0.5;exitDx=0;exitDy=0;entryX=0;entryY=0.5;entryDx=0;entryDy=0;fontSize=12;startSize=8;endSize=8;endArrow=none;endFill=0;" parent="1" source="OiOX3Y-eicw3onZXfL4D-78" target="DgqKghVQSb-tML7D4mr0-110" edge="1">
          <mxGeometry relative="1" as="geometry" />
        </mxCell>
        <mxCell id="DgqKghVQSb-tML7D4mr0-137" style="edgeStyle=none;curved=1;rounded=0;orthogonalLoop=1;jettySize=auto;html=1;exitX=1;exitY=0.5;exitDx=0;exitDy=0;entryX=0;entryY=0.5;entryDx=0;entryDy=0;fontSize=12;startSize=8;endSize=8;endArrow=none;endFill=0;" parent="1" source="OiOX3Y-eicw3onZXfL4D-78" target="DgqKghVQSb-tML7D4mr0-111" edge="1">
          <mxGeometry relative="1" as="geometry" />
        </mxCell>
        <mxCell id="OiOX3Y-eicw3onZXfL4D-78" value="Gasto" style="rounded=0;whiteSpace=wrap;html=1;strokeWidth=3;" parent="1" vertex="1">
          <mxGeometry x="2181" y="-283.25" width="97" height="39" as="geometry" />
        </mxCell>
        <mxCell id="DgqKghVQSb-tML7D4mr0-140" style="edgeStyle=orthogonalEdgeStyle;rounded=0;orthogonalLoop=1;jettySize=auto;html=1;exitX=0.25;exitY=1;exitDx=0;exitDy=0;entryX=1;entryY=0.5;entryDx=0;entryDy=0;fontSize=12;startSize=8;endSize=8;endArrow=none;endFill=0;" parent="1" source="OiOX3Y-eicw3onZXfL4D-121" target="DgqKghVQSb-tML7D4mr0-87" edge="1">
          <mxGeometry relative="1" as="geometry" />
        </mxCell>
        <mxCell id="DgqKghVQSb-tML7D4mr0-141" style="edgeStyle=none;curved=1;rounded=0;orthogonalLoop=1;jettySize=auto;html=1;exitX=0.5;exitY=1;exitDx=0;exitDy=0;entryX=0.5;entryY=0;entryDx=0;entryDy=0;fontSize=12;startSize=8;endSize=8;endArrow=none;endFill=0;" parent="1" source="OiOX3Y-eicw3onZXfL4D-121" target="DgqKghVQSb-tML7D4mr0-88" edge="1">
          <mxGeometry relative="1" as="geometry" />
        </mxCell>
        <mxCell id="DgqKghVQSb-tML7D4mr0-186" style="edgeStyle=none;curved=1;rounded=0;orthogonalLoop=1;jettySize=auto;html=1;exitX=1;exitY=0.5;exitDx=0;exitDy=0;entryX=0;entryY=0.5;entryDx=0;entryDy=0;fontSize=12;startSize=8;endSize=8;endArrow=none;endFill=0;" parent="1" source="OiOX3Y-eicw3onZXfL4D-121" target="DgqKghVQSb-tML7D4mr0-183" edge="1">
          <mxGeometry relative="1" as="geometry" />
        </mxCell>
        <mxCell id="DgqKghVQSb-tML7D4mr0-187" style="edgeStyle=none;curved=1;rounded=0;orthogonalLoop=1;jettySize=auto;html=1;exitX=1;exitY=0.5;exitDx=0;exitDy=0;entryX=0;entryY=0.5;entryDx=0;entryDy=0;fontSize=12;startSize=8;endSize=8;endArrow=none;endFill=0;" parent="1" source="OiOX3Y-eicw3onZXfL4D-121" target="DgqKghVQSb-tML7D4mr0-184" edge="1">
          <mxGeometry relative="1" as="geometry" />
        </mxCell>
        <mxCell id="DgqKghVQSb-tML7D4mr0-188" style="edgeStyle=none;curved=1;rounded=0;orthogonalLoop=1;jettySize=auto;html=1;exitX=1;exitY=0.5;exitDx=0;exitDy=0;entryX=0;entryY=0.5;entryDx=0;entryDy=0;fontSize=12;startSize=8;endSize=8;endArrow=none;endFill=0;" parent="1" source="OiOX3Y-eicw3onZXfL4D-121" target="DgqKghVQSb-tML7D4mr0-185" edge="1">
          <mxGeometry relative="1" as="geometry" />
        </mxCell>
        <mxCell id="OiOX3Y-eicw3onZXfL4D-121" value="Refugio" style="rounded=0;whiteSpace=wrap;html=1;strokeWidth=3;" parent="1" vertex="1">
          <mxGeometry x="2184.5" y="-22" width="97" height="39" as="geometry" />
        </mxCell>
        <mxCell id="DgqKghVQSb-tML7D4mr0-6" value="Donación" style="rounded=0;whiteSpace=wrap;html=1;strokeWidth=3;" parent="1" vertex="1">
          <mxGeometry x="741" y="143" width="97" height="39" as="geometry" />
        </mxCell>
        <mxCell id="DgqKghVQSb-tML7D4mr0-7" value="Adopción" style="rounded=0;whiteSpace=wrap;html=1;strokeWidth=3;" parent="1" vertex="1">
          <mxGeometry x="1615.5" y="-434" width="97" height="39" as="geometry" />
        </mxCell>
        <mxCell id="DgqKghVQSb-tML7D4mr0-8" value="&lt;div&gt;Logística&lt;/div&gt;&lt;div&gt;y Transporte&lt;br&gt;&lt;/div&gt;" style="rounded=0;whiteSpace=wrap;html=1;strokeWidth=3;" parent="1" vertex="1">
          <mxGeometry x="1840.5" y="-434" width="97" height="39" as="geometry" />
        </mxCell>
        <mxCell id="DgqKghVQSb-tML7D4mr0-9" value="&lt;div&gt;Recaudación&lt;/div&gt;&lt;div&gt;de Fondos&lt;br&gt;&lt;/div&gt;" style="rounded=0;whiteSpace=wrap;html=1;strokeWidth=3;" parent="1" vertex="1">
          <mxGeometry x="1728" y="-434" width="97" height="39" as="geometry" />
        </mxCell>
        <mxCell id="DgqKghVQSb-tML7D4mr0-24" style="edgeStyle=orthogonalEdgeStyle;rounded=0;orthogonalLoop=1;jettySize=auto;html=1;exitX=0;exitY=0.5;exitDx=0;exitDy=0;entryX=0.5;entryY=0;entryDx=0;entryDy=0;fontSize=12;startSize=8;endSize=8;endArrow=none;endFill=0;" parent="1" source="DgqKghVQSb-tML7D4mr0-10" target="DgqKghVQSb-tML7D4mr0-23" edge="1">
          <mxGeometry relative="1" as="geometry" />
        </mxCell>
        <mxCell id="DgqKghVQSb-tML7D4mr0-158" value="1" style="edgeLabel;html=1;align=center;verticalAlign=middle;resizable=0;points=[];fontSize=12;" parent="DgqKghVQSb-tML7D4mr0-24" vertex="1" connectable="0">
          <mxGeometry x="-0.3846" y="1" relative="1" as="geometry">
            <mxPoint x="27" y="9" as="offset" />
          </mxGeometry>
        </mxCell>
        <mxCell id="DgqKghVQSb-tML7D4mr0-160" value="1" style="edgeLabel;html=1;align=center;verticalAlign=middle;resizable=0;points=[];fontSize=12;" parent="DgqKghVQSb-tML7D4mr0-24" vertex="1" connectable="0">
          <mxGeometry x="-0.3846" y="1" relative="1" as="geometry">
            <mxPoint x="140" y="9" as="offset" />
          </mxGeometry>
        </mxCell>
        <mxCell id="DgqKghVQSb-tML7D4mr0-162" value="N" style="edgeLabel;html=1;align=center;verticalAlign=middle;resizable=0;points=[];fontSize=12;" parent="DgqKghVQSb-tML7D4mr0-24" vertex="1" connectable="0">
          <mxGeometry x="-0.3846" y="1" relative="1" as="geometry">
            <mxPoint x="134" y="385" as="offset" />
          </mxGeometry>
        </mxCell>
        <mxCell id="DgqKghVQSb-tML7D4mr0-163" value="1" style="edgeLabel;html=1;align=center;verticalAlign=middle;resizable=0;points=[];fontSize=12;" parent="DgqKghVQSb-tML7D4mr0-24" vertex="1" connectable="0">
          <mxGeometry x="-0.3846" y="1" relative="1" as="geometry">
            <mxPoint x="1372" y="420" as="offset" />
          </mxGeometry>
        </mxCell>
        <mxCell id="DgqKghVQSb-tML7D4mr0-25" style="edgeStyle=orthogonalEdgeStyle;rounded=0;orthogonalLoop=1;jettySize=auto;html=1;exitX=1;exitY=0.5;exitDx=0;exitDy=0;entryX=0.5;entryY=0;entryDx=0;entryDy=0;fontSize=12;startSize=8;endSize=8;endArrow=none;endFill=0;" parent="1" source="DgqKghVQSb-tML7D4mr0-10" target="DgqKghVQSb-tML7D4mr0-22" edge="1">
          <mxGeometry relative="1" as="geometry" />
        </mxCell>
        <mxCell id="DgqKghVQSb-tML7D4mr0-10" value="&lt;div&gt;Usuario&lt;br&gt;&lt;/div&gt;&lt;div&gt;Externo&lt;/div&gt;" style="rounded=0;whiteSpace=wrap;html=1;strokeWidth=3;" parent="1" vertex="1">
          <mxGeometry x="864" y="-41" width="97" height="39" as="geometry" />
        </mxCell>
        <mxCell id="DgqKghVQSb-tML7D4mr0-70" style="edgeStyle=none;curved=1;rounded=0;orthogonalLoop=1;jettySize=auto;html=1;exitX=0.5;exitY=0;exitDx=0;exitDy=0;entryX=0.5;entryY=1;entryDx=0;entryDy=0;fontSize=12;startSize=8;endSize=8;endArrow=none;endFill=0;" parent="1" source="DgqKghVQSb-tML7D4mr0-11" target="DgqKghVQSb-tML7D4mr0-68" edge="1">
          <mxGeometry relative="1" as="geometry" />
        </mxCell>
        <mxCell id="DgqKghVQSb-tML7D4mr0-143" style="edgeStyle=none;curved=1;rounded=0;orthogonalLoop=1;jettySize=auto;html=1;exitX=1;exitY=0.5;exitDx=0;exitDy=0;entryX=0;entryY=0.5;entryDx=0;entryDy=0;fontSize=12;startSize=8;endSize=8;endArrow=none;endFill=0;" parent="1" source="DgqKghVQSb-tML7D4mr0-11" target="DgqKghVQSb-tML7D4mr0-142" edge="1">
          <mxGeometry relative="1" as="geometry" />
        </mxCell>
        <mxCell id="Q6MzQbn6rYoNHMJF28ys-12" style="edgeStyle=orthogonalEdgeStyle;rounded=0;orthogonalLoop=1;jettySize=auto;html=1;exitX=1;exitY=0.25;exitDx=0;exitDy=0;entryX=0;entryY=0.5;entryDx=0;entryDy=0;fontSize=12;startSize=8;endSize=8;endArrow=none;endFill=0;" edge="1" parent="1" source="DgqKghVQSb-tML7D4mr0-11" target="Q6MzQbn6rYoNHMJF28ys-9">
          <mxGeometry relative="1" as="geometry">
            <Array as="points">
              <mxPoint x="1901" y="-12" />
              <mxPoint x="1901" y="-264" />
            </Array>
          </mxGeometry>
        </mxCell>
        <mxCell id="DgqKghVQSb-tML7D4mr0-11" value="&lt;div&gt;Usuario&lt;br&gt;&lt;/div&gt;&lt;div&gt;Interno&lt;/div&gt;" style="rounded=0;whiteSpace=wrap;html=1;strokeWidth=3;" parent="1" vertex="1">
          <mxGeometry x="1728" y="-22" width="97" height="39" as="geometry" />
        </mxCell>
        <mxCell id="DgqKghVQSb-tML7D4mr0-14" style="edgeStyle=none;curved=1;rounded=0;orthogonalLoop=1;jettySize=auto;html=1;exitX=0;exitY=0.5;exitDx=0;exitDy=0;entryX=0.5;entryY=0;entryDx=0;entryDy=0;fontSize=12;startSize=8;endSize=8;endArrow=none;endFill=0;" parent="1" source="DgqKghVQSb-tML7D4mr0-13" target="DgqKghVQSb-tML7D4mr0-10" edge="1">
          <mxGeometry relative="1" as="geometry" />
        </mxCell>
        <mxCell id="DgqKghVQSb-tML7D4mr0-181" value="&quot;Externo&quot;" style="edgeLabel;html=1;align=center;verticalAlign=middle;resizable=0;points=[];fontSize=12;" parent="DgqKghVQSb-tML7D4mr0-14" vertex="1" connectable="0">
          <mxGeometry x="0.0034" y="-6" relative="1" as="geometry">
            <mxPoint x="-9" y="-10" as="offset" />
          </mxGeometry>
        </mxCell>
        <mxCell id="DgqKghVQSb-tML7D4mr0-15" style="edgeStyle=none;curved=1;rounded=0;orthogonalLoop=1;jettySize=auto;html=1;exitX=1;exitY=0.5;exitDx=0;exitDy=0;entryX=0;entryY=0.25;entryDx=0;entryDy=0;fontSize=12;startSize=8;endSize=8;endArrow=none;endFill=0;" parent="1" source="DgqKghVQSb-tML7D4mr0-13" target="DgqKghVQSb-tML7D4mr0-11" edge="1">
          <mxGeometry relative="1" as="geometry" />
        </mxCell>
        <mxCell id="DgqKghVQSb-tML7D4mr0-182" value="&quot;Interno&quot;" style="edgeLabel;html=1;align=center;verticalAlign=middle;resizable=0;points=[];fontSize=12;" parent="DgqKghVQSb-tML7D4mr0-15" vertex="1" connectable="0">
          <mxGeometry x="0.0069" y="3" relative="1" as="geometry">
            <mxPoint y="-20" as="offset" />
          </mxGeometry>
        </mxCell>
        <mxCell id="DgqKghVQSb-tML7D4mr0-13" value="d" style="ellipse;whiteSpace=wrap;html=1;" parent="1" vertex="1">
          <mxGeometry x="1327" y="-162" width="21" height="21" as="geometry" />
        </mxCell>
        <mxCell id="DgqKghVQSb-tML7D4mr0-126" style="edgeStyle=none;curved=1;rounded=0;orthogonalLoop=1;jettySize=auto;html=1;exitX=1;exitY=0.5;exitDx=0;exitDy=0;entryX=0;entryY=0.5;entryDx=0;entryDy=0;fontSize=12;startSize=8;endSize=8;endArrow=none;endFill=0;" parent="1" source="DgqKghVQSb-tML7D4mr0-18" target="DgqKghVQSb-tML7D4mr0-100" edge="1">
          <mxGeometry relative="1" as="geometry" />
        </mxCell>
        <mxCell id="DgqKghVQSb-tML7D4mr0-127" style="edgeStyle=none;curved=1;rounded=0;orthogonalLoop=1;jettySize=auto;html=1;exitX=1;exitY=0.5;exitDx=0;exitDy=0;entryX=0;entryY=0.5;entryDx=0;entryDy=0;fontSize=12;startSize=8;endSize=8;endArrow=none;endFill=0;" parent="1" source="DgqKghVQSb-tML7D4mr0-18" target="DgqKghVQSb-tML7D4mr0-101" edge="1">
          <mxGeometry relative="1" as="geometry" />
        </mxCell>
        <mxCell id="DgqKghVQSb-tML7D4mr0-128" style="edgeStyle=none;curved=1;rounded=0;orthogonalLoop=1;jettySize=auto;html=1;exitX=1;exitY=0.5;exitDx=0;exitDy=0;entryX=0;entryY=0.5;entryDx=0;entryDy=0;fontSize=12;startSize=8;endSize=8;endArrow=none;endFill=0;" parent="1" source="DgqKghVQSb-tML7D4mr0-18" target="DgqKghVQSb-tML7D4mr0-102" edge="1">
          <mxGeometry relative="1" as="geometry" />
        </mxCell>
        <mxCell id="DgqKghVQSb-tML7D4mr0-129" style="edgeStyle=none;curved=1;rounded=0;orthogonalLoop=1;jettySize=auto;html=1;exitX=1;exitY=0.5;exitDx=0;exitDy=0;entryX=0;entryY=0.5;entryDx=0;entryDy=0;fontSize=12;startSize=8;endSize=8;endArrow=none;endFill=0;" parent="1" source="DgqKghVQSb-tML7D4mr0-18" target="DgqKghVQSb-tML7D4mr0-103" edge="1">
          <mxGeometry relative="1" as="geometry" />
        </mxCell>
        <mxCell id="DgqKghVQSb-tML7D4mr0-18" value="Animal&lt;br&gt;en Adopción" style="rounded=0;whiteSpace=wrap;html=1;strokeWidth=3;" parent="1" vertex="1">
          <mxGeometry x="1882" y="348" width="97" height="39" as="geometry" />
        </mxCell>
        <mxCell id="DgqKghVQSb-tML7D4mr0-61" style="edgeStyle=none;curved=1;rounded=0;orthogonalLoop=1;jettySize=auto;html=1;exitX=0.5;exitY=1;exitDx=0;exitDy=0;entryX=0.5;entryY=0;entryDx=0;entryDy=0;fontSize=12;startSize=8;endSize=8;endArrow=none;endFill=0;" parent="1" source="DgqKghVQSb-tML7D4mr0-20" target="DgqKghVQSb-tML7D4mr0-59" edge="1">
          <mxGeometry relative="1" as="geometry" />
        </mxCell>
        <mxCell id="DgqKghVQSb-tML7D4mr0-62" style="edgeStyle=none;curved=1;rounded=0;orthogonalLoop=1;jettySize=auto;html=1;exitX=0.5;exitY=1;exitDx=0;exitDy=0;entryX=0.5;entryY=0;entryDx=0;entryDy=0;fontSize=12;startSize=8;endSize=8;endArrow=none;endFill=0;" parent="1" source="DgqKghVQSb-tML7D4mr0-20" target="DgqKghVQSb-tML7D4mr0-60" edge="1">
          <mxGeometry relative="1" as="geometry" />
        </mxCell>
        <mxCell id="DgqKghVQSb-tML7D4mr0-20" value="&lt;div&gt;Donación&lt;/div&gt;&lt;div&gt;de Dinero&lt;br&gt;&lt;/div&gt;" style="rounded=0;whiteSpace=wrap;html=1;strokeWidth=3;" parent="1" vertex="1">
          <mxGeometry x="622" y="335" width="97" height="39" as="geometry" />
        </mxCell>
        <mxCell id="DgqKghVQSb-tML7D4mr0-21" value="&lt;div&gt;Donación&lt;/div&gt;&lt;div&gt;de Insumo&lt;br&gt;&lt;/div&gt;" style="rounded=0;whiteSpace=wrap;html=1;strokeWidth=3;" parent="1" vertex="1">
          <mxGeometry x="857" y="335" width="97" height="39" as="geometry" />
        </mxCell>
        <mxCell id="DgqKghVQSb-tML7D4mr0-27" style="edgeStyle=none;curved=1;rounded=0;orthogonalLoop=1;jettySize=auto;html=1;exitX=0.5;exitY=1;exitDx=0;exitDy=0;entryX=0.5;entryY=0;entryDx=0;entryDy=0;fontSize=12;startSize=8;endSize=8;endArrow=none;endFill=0;" parent="1" source="DgqKghVQSb-tML7D4mr0-22" target="OiOX3Y-eicw3onZXfL4D-29" edge="1">
          <mxGeometry relative="1" as="geometry" />
        </mxCell>
        <mxCell id="DgqKghVQSb-tML7D4mr0-22" value="envía" style="rhombus;whiteSpace=wrap;html=1;" parent="1" vertex="1">
          <mxGeometry x="969.5" y="21" width="80" height="80" as="geometry" />
        </mxCell>
        <mxCell id="DgqKghVQSb-tML7D4mr0-26" value="1" style="edgeStyle=none;curved=1;rounded=0;orthogonalLoop=1;jettySize=auto;html=1;exitX=0.5;exitY=1;exitDx=0;exitDy=0;entryX=0.5;entryY=0;entryDx=0;entryDy=0;fontSize=12;startSize=8;endSize=8;endArrow=none;endFill=0;" parent="1" source="DgqKghVQSb-tML7D4mr0-23" target="DgqKghVQSb-tML7D4mr0-6" edge="1">
          <mxGeometry relative="1" as="geometry" />
        </mxCell>
        <mxCell id="DgqKghVQSb-tML7D4mr0-159" value="N" style="edgeLabel;html=1;align=center;verticalAlign=middle;resizable=0;points=[];fontSize=12;" parent="DgqKghVQSb-tML7D4mr0-26" vertex="1" connectable="0">
          <mxGeometry y="-1" relative="1" as="geometry">
            <mxPoint x="10" y="9" as="offset" />
          </mxGeometry>
        </mxCell>
        <mxCell id="DgqKghVQSb-tML7D4mr0-161" value="N" style="edgeLabel;html=1;align=center;verticalAlign=middle;resizable=0;points=[];fontSize=12;" parent="DgqKghVQSb-tML7D4mr0-26" vertex="1" connectable="0">
          <mxGeometry y="-1" relative="1" as="geometry">
            <mxPoint x="229" y="9" as="offset" />
          </mxGeometry>
        </mxCell>
        <mxCell id="DgqKghVQSb-tML7D4mr0-164" value="1" style="edgeLabel;html=1;align=center;verticalAlign=middle;resizable=0;points=[];fontSize=12;" parent="DgqKghVQSb-tML7D4mr0-26" vertex="1" connectable="0">
          <mxGeometry y="-1" relative="1" as="geometry">
            <mxPoint x="995" y="-339" as="offset" />
          </mxGeometry>
        </mxCell>
        <mxCell id="DgqKghVQSb-tML7D4mr0-165" value="N" style="edgeLabel;html=1;align=center;verticalAlign=middle;resizable=0;points=[];fontSize=12;" parent="DgqKghVQSb-tML7D4mr0-26" vertex="1" connectable="0">
          <mxGeometry y="-1" relative="1" as="geometry">
            <mxPoint x="996" y="-157" as="offset" />
          </mxGeometry>
        </mxCell>
        <mxCell id="DgqKghVQSb-tML7D4mr0-166" value="M" style="edgeLabel;html=1;align=center;verticalAlign=middle;resizable=0;points=[];fontSize=12;" parent="DgqKghVQSb-tML7D4mr0-26" vertex="1" connectable="0">
          <mxGeometry y="-1" relative="1" as="geometry">
            <mxPoint x="857" y="213" as="offset" />
          </mxGeometry>
        </mxCell>
        <mxCell id="DgqKghVQSb-tML7D4mr0-167" value="N" style="edgeLabel;html=1;align=center;verticalAlign=middle;resizable=0;points=[];fontSize=12;" parent="DgqKghVQSb-tML7D4mr0-26" vertex="1" connectable="0">
          <mxGeometry y="-1" relative="1" as="geometry">
            <mxPoint x="972" y="-94" as="offset" />
          </mxGeometry>
        </mxCell>
        <mxCell id="DgqKghVQSb-tML7D4mr0-169" value="N" style="edgeLabel;html=1;align=center;verticalAlign=middle;resizable=0;points=[];fontSize=12;" parent="DgqKghVQSb-tML7D4mr0-26" vertex="1" connectable="0">
          <mxGeometry y="-1" relative="1" as="geometry">
            <mxPoint x="833" y="213" as="offset" />
          </mxGeometry>
        </mxCell>
        <mxCell id="DgqKghVQSb-tML7D4mr0-170" value="1" style="edgeLabel;html=1;align=center;verticalAlign=middle;resizable=0;points=[];fontSize=12;" parent="DgqKghVQSb-tML7D4mr0-26" vertex="1" connectable="0">
          <mxGeometry y="-1" relative="1" as="geometry">
            <mxPoint x="603" y="211" as="offset" />
          </mxGeometry>
        </mxCell>
        <mxCell id="DgqKghVQSb-tML7D4mr0-171" value="N" style="edgeLabel;html=1;align=center;verticalAlign=middle;resizable=0;points=[];fontSize=12;" parent="DgqKghVQSb-tML7D4mr0-26" vertex="1" connectable="0">
          <mxGeometry y="-1" relative="1" as="geometry">
            <mxPoint x="1046" y="-113" as="offset" />
          </mxGeometry>
        </mxCell>
        <mxCell id="DgqKghVQSb-tML7D4mr0-172" value="1" style="edgeLabel;html=1;align=center;verticalAlign=middle;resizable=0;points=[];fontSize=12;" parent="DgqKghVQSb-tML7D4mr0-26" vertex="1" connectable="0">
          <mxGeometry y="-1" relative="1" as="geometry">
            <mxPoint x="1385" y="-137" as="offset" />
          </mxGeometry>
        </mxCell>
        <mxCell id="DgqKghVQSb-tML7D4mr0-173" value="1" style="edgeLabel;html=1;align=center;verticalAlign=middle;resizable=0;points=[];fontSize=12;" parent="DgqKghVQSb-tML7D4mr0-26" vertex="1" connectable="0">
          <mxGeometry y="-1" relative="1" as="geometry">
            <mxPoint x="996" y="-94" as="offset" />
          </mxGeometry>
        </mxCell>
        <mxCell id="DgqKghVQSb-tML7D4mr0-174" value="N" style="edgeLabel;html=1;align=center;verticalAlign=middle;resizable=0;points=[];fontSize=12;" parent="DgqKghVQSb-tML7D4mr0-26" vertex="1" connectable="0">
          <mxGeometry y="-1" relative="1" as="geometry">
            <mxPoint x="1108" y="213" as="offset" />
          </mxGeometry>
        </mxCell>
        <mxCell id="DgqKghVQSb-tML7D4mr0-175" value="N" style="edgeLabel;html=1;align=center;verticalAlign=middle;resizable=0;points=[];fontSize=12;" parent="DgqKghVQSb-tML7D4mr0-26" vertex="1" connectable="0">
          <mxGeometry y="-1" relative="1" as="geometry">
            <mxPoint x="1157" y="213" as="offset" />
          </mxGeometry>
        </mxCell>
        <mxCell id="DgqKghVQSb-tML7D4mr0-176" value="1" style="edgeLabel;html=1;align=center;verticalAlign=middle;resizable=0;points=[];fontSize=12;" parent="DgqKghVQSb-tML7D4mr0-26" vertex="1" connectable="0">
          <mxGeometry y="-1" relative="1" as="geometry">
            <mxPoint x="1411" y="-93" as="offset" />
          </mxGeometry>
        </mxCell>
        <mxCell id="DgqKghVQSb-tML7D4mr0-178" value="N" style="edgeLabel;html=1;align=center;verticalAlign=middle;resizable=0;points=[];fontSize=12;" parent="DgqKghVQSb-tML7D4mr0-26" vertex="1" connectable="0">
          <mxGeometry y="-1" relative="1" as="geometry">
            <mxPoint x="1382" y="-376" as="offset" />
          </mxGeometry>
        </mxCell>
        <mxCell id="DgqKghVQSb-tML7D4mr0-179" value="M" style="edgeLabel;html=1;align=center;verticalAlign=middle;resizable=0;points=[];fontSize=12;" parent="DgqKghVQSb-tML7D4mr0-26" vertex="1" connectable="0">
          <mxGeometry y="-1" relative="1" as="geometry">
            <mxPoint x="1435" y="214" as="offset" />
          </mxGeometry>
        </mxCell>
        <mxCell id="DgqKghVQSb-tML7D4mr0-180" value="N" style="edgeLabel;html=1;align=center;verticalAlign=middle;resizable=0;points=[];fontSize=12;" parent="DgqKghVQSb-tML7D4mr0-26" vertex="1" connectable="0">
          <mxGeometry y="-1" relative="1" as="geometry">
            <mxPoint x="1434" y="-93" as="offset" />
          </mxGeometry>
        </mxCell>
        <mxCell id="DgqKghVQSb-tML7D4mr0-190" value="N" style="edgeLabel;html=1;align=center;verticalAlign=middle;resizable=0;points=[];fontSize=12;" parent="DgqKghVQSb-tML7D4mr0-26" vertex="1" connectable="0">
          <mxGeometry y="-1" relative="1" as="geometry">
            <mxPoint x="230" y="71" as="offset" />
          </mxGeometry>
        </mxCell>
        <mxCell id="Q6MzQbn6rYoNHMJF28ys-2" value="1" style="edgeLabel;html=1;align=center;verticalAlign=middle;resizable=0;points=[];fontSize=12;" vertex="1" connectable="0" parent="DgqKghVQSb-tML7D4mr0-26">
          <mxGeometry y="-1" relative="1" as="geometry">
            <mxPoint x="1461" y="-93" as="offset" />
          </mxGeometry>
        </mxCell>
        <mxCell id="Q6MzQbn6rYoNHMJF28ys-3" value="N" style="edgeLabel;html=1;align=center;verticalAlign=middle;resizable=0;points=[];fontSize=12;" vertex="1" connectable="0" parent="DgqKghVQSb-tML7D4mr0-26">
          <mxGeometry y="-1" relative="1" as="geometry">
            <mxPoint x="580" y="273" as="offset" />
          </mxGeometry>
        </mxCell>
        <mxCell id="Q6MzQbn6rYoNHMJF28ys-8" value="1" style="edgeLabel;html=1;align=center;verticalAlign=middle;resizable=0;points=[];fontSize=12;" vertex="1" connectable="0" parent="DgqKghVQSb-tML7D4mr0-26">
          <mxGeometry y="-1" relative="1" as="geometry">
            <mxPoint x="929" y="-113" as="offset" />
          </mxGeometry>
        </mxCell>
        <mxCell id="Q6MzQbn6rYoNHMJF28ys-13" value="1" style="edgeLabel;html=1;align=center;verticalAlign=middle;resizable=0;points=[];fontSize=12;" vertex="1" connectable="0" parent="DgqKghVQSb-tML7D4mr0-26">
          <mxGeometry y="-1" relative="1" as="geometry">
            <mxPoint x="1045" y="-148" as="offset" />
          </mxGeometry>
        </mxCell>
        <mxCell id="DgqKghVQSb-tML7D4mr0-23" value="realiza" style="rhombus;whiteSpace=wrap;html=1;" parent="1" vertex="1">
          <mxGeometry x="749.5" y="21" width="80" height="80" as="geometry" />
        </mxCell>
        <mxCell id="DgqKghVQSb-tML7D4mr0-28" style="edgeStyle=none;curved=1;rounded=0;orthogonalLoop=1;jettySize=auto;html=1;exitX=0.5;exitY=1;exitDx=0;exitDy=0;fontSize=12;startSize=8;endSize=8;endArrow=none;endFill=0;entryX=0.5;entryY=0;entryDx=0;entryDy=0;" parent="1" source="DgqKghVQSb-tML7D4mr0-6" target="DgqKghVQSb-tML7D4mr0-30" edge="1">
          <mxGeometry relative="1" as="geometry">
            <mxPoint x="789" y="192" as="sourcePoint" />
            <mxPoint x="790" y="230" as="targetPoint" />
          </mxGeometry>
        </mxCell>
        <mxCell id="DgqKghVQSb-tML7D4mr0-31" style="edgeStyle=none;curved=1;rounded=0;orthogonalLoop=1;jettySize=auto;html=1;exitX=0;exitY=1;exitDx=0;exitDy=0;entryX=0.5;entryY=0;entryDx=0;entryDy=0;fontSize=12;startSize=8;endSize=8;endArrow=none;endFill=0;" parent="1" source="DgqKghVQSb-tML7D4mr0-30" target="DgqKghVQSb-tML7D4mr0-20" edge="1">
          <mxGeometry relative="1" as="geometry" />
        </mxCell>
        <mxCell id="DgqKghVQSb-tML7D4mr0-32" style="edgeStyle=none;curved=1;rounded=0;orthogonalLoop=1;jettySize=auto;html=1;exitX=1;exitY=1;exitDx=0;exitDy=0;entryX=0.5;entryY=0;entryDx=0;entryDy=0;fontSize=12;startSize=8;endSize=8;endArrow=none;endFill=0;" parent="1" source="DgqKghVQSb-tML7D4mr0-30" target="DgqKghVQSb-tML7D4mr0-21" edge="1">
          <mxGeometry relative="1" as="geometry" />
        </mxCell>
        <mxCell id="DgqKghVQSb-tML7D4mr0-30" value="d" style="ellipse;whiteSpace=wrap;html=1;" parent="1" vertex="1">
          <mxGeometry x="779" y="214" width="21" height="21" as="geometry" />
        </mxCell>
        <mxCell id="DgqKghVQSb-tML7D4mr0-37" value="&lt;u&gt;nroUsuario&lt;/u&gt;" style="ellipse;whiteSpace=wrap;html=1;" parent="1" vertex="1">
          <mxGeometry x="1133" y="-353" width="104" height="40" as="geometry" />
        </mxCell>
        <mxCell id="DgqKghVQSb-tML7D4mr0-38" style="edgeStyle=none;curved=1;rounded=0;orthogonalLoop=1;jettySize=auto;html=1;exitX=0.5;exitY=0;exitDx=0;exitDy=0;entryX=1;entryY=0.5;entryDx=0;entryDy=0;fontSize=12;startSize=8;endSize=8;endArrow=none;endFill=0;" parent="1" source="OiOX3Y-eicw3onZXfL4D-20" target="DgqKghVQSb-tML7D4mr0-37" edge="1">
          <mxGeometry relative="1" as="geometry">
            <mxPoint x="1336" y="-293" as="sourcePoint" />
          </mxGeometry>
        </mxCell>
        <mxCell id="DgqKghVQSb-tML7D4mr0-39" value="nombre" style="ellipse;whiteSpace=wrap;html=1;" parent="1" vertex="1">
          <mxGeometry x="1193" y="-400" width="104" height="40" as="geometry" />
        </mxCell>
        <mxCell id="DgqKghVQSb-tML7D4mr0-40" style="edgeStyle=none;curved=1;rounded=0;orthogonalLoop=1;jettySize=auto;html=1;exitX=0.5;exitY=0;exitDx=0;exitDy=0;entryX=1;entryY=1;entryDx=0;entryDy=0;fontSize=12;startSize=8;endSize=8;endArrow=none;endFill=0;" parent="1" source="OiOX3Y-eicw3onZXfL4D-20" target="DgqKghVQSb-tML7D4mr0-39" edge="1">
          <mxGeometry relative="1" as="geometry">
            <mxPoint x="1336" y="-293" as="sourcePoint" />
          </mxGeometry>
        </mxCell>
        <mxCell id="DgqKghVQSb-tML7D4mr0-41" value="tipo" style="ellipse;whiteSpace=wrap;html=1;" parent="1" vertex="1">
          <mxGeometry x="1283.5" y="-439" width="104" height="40" as="geometry" />
        </mxCell>
        <mxCell id="DgqKghVQSb-tML7D4mr0-42" style="edgeStyle=none;curved=1;rounded=0;orthogonalLoop=1;jettySize=auto;html=1;exitX=0.5;exitY=0;exitDx=0;exitDy=0;entryX=0.5;entryY=1;entryDx=0;entryDy=0;fontSize=12;startSize=8;endSize=8;endArrow=none;endFill=0;" parent="1" source="OiOX3Y-eicw3onZXfL4D-20" target="DgqKghVQSb-tML7D4mr0-41" edge="1">
          <mxGeometry relative="1" as="geometry">
            <mxPoint x="1336" y="-293" as="sourcePoint" />
          </mxGeometry>
        </mxCell>
        <mxCell id="DgqKghVQSb-tML7D4mr0-43" style="edgeStyle=none;curved=1;rounded=0;orthogonalLoop=1;jettySize=auto;html=1;exitX=0.5;exitY=0;exitDx=0;exitDy=0;entryX=0;entryY=1;entryDx=0;entryDy=0;fontSize=12;startSize=8;endSize=8;endArrow=none;endFill=0;" parent="1" source="OiOX3Y-eicw3onZXfL4D-20" target="DgqKghVQSb-tML7D4mr0-46" edge="1">
          <mxGeometry relative="1" as="geometry">
            <mxPoint x="1336" y="-293" as="sourcePoint" />
          </mxGeometry>
        </mxCell>
        <mxCell id="DgqKghVQSb-tML7D4mr0-44" style="edgeStyle=none;curved=1;rounded=0;orthogonalLoop=1;jettySize=auto;html=1;exitX=0.5;exitY=0;exitDx=0;exitDy=0;entryX=0;entryY=0.5;entryDx=0;entryDy=0;fontSize=12;startSize=8;endSize=8;endArrow=none;endFill=0;" parent="1" source="OiOX3Y-eicw3onZXfL4D-20" target="DgqKghVQSb-tML7D4mr0-45" edge="1">
          <mxGeometry relative="1" as="geometry">
            <mxPoint x="1336" y="-293" as="sourcePoint" />
          </mxGeometry>
        </mxCell>
        <mxCell id="DgqKghVQSb-tML7D4mr0-45" value="mail" style="ellipse;whiteSpace=wrap;html=1;" parent="1" vertex="1">
          <mxGeometry x="1424" y="-353" width="104" height="40" as="geometry" />
        </mxCell>
        <mxCell id="DgqKghVQSb-tML7D4mr0-46" value="apellido" style="ellipse;whiteSpace=wrap;html=1;" parent="1" vertex="1">
          <mxGeometry x="1364" y="-400" width="104" height="40" as="geometry" />
        </mxCell>
        <mxCell id="DgqKghVQSb-tML7D4mr0-49" style="edgeStyle=none;curved=1;rounded=0;orthogonalLoop=1;jettySize=auto;html=1;exitX=1;exitY=0.5;exitDx=0;exitDy=0;entryX=0;entryY=0.5;entryDx=0;entryDy=0;fontSize=12;startSize=8;endSize=8;endArrow=none;endFill=0;" parent="1" source="DgqKghVQSb-tML7D4mr0-47" target="DgqKghVQSb-tML7D4mr0-6" edge="1">
          <mxGeometry relative="1" as="geometry" />
        </mxCell>
        <mxCell id="DgqKghVQSb-tML7D4mr0-47" value="fecha" style="ellipse;whiteSpace=wrap;html=1;" parent="1" vertex="1">
          <mxGeometry x="596" y="172" width="104" height="40" as="geometry" />
        </mxCell>
        <mxCell id="DgqKghVQSb-tML7D4mr0-50" style="edgeStyle=none;curved=1;rounded=0;orthogonalLoop=1;jettySize=auto;html=1;exitX=1;exitY=0.5;exitDx=0;exitDy=0;fontSize=12;startSize=8;endSize=8;entryX=0;entryY=0.5;entryDx=0;entryDy=0;endArrow=none;endFill=0;" parent="1" source="DgqKghVQSb-tML7D4mr0-48" target="DgqKghVQSb-tML7D4mr0-6" edge="1">
          <mxGeometry relative="1" as="geometry">
            <mxPoint x="726" y="143" as="targetPoint" />
          </mxGeometry>
        </mxCell>
        <mxCell id="DgqKghVQSb-tML7D4mr0-48" value="&lt;u&gt;nroDonación&lt;/u&gt;" style="ellipse;whiteSpace=wrap;html=1;" parent="1" vertex="1">
          <mxGeometry x="596" y="113" width="104" height="40" as="geometry" />
        </mxCell>
        <mxCell id="DgqKghVQSb-tML7D4mr0-51" value="&lt;u&gt;nroCaso&lt;/u&gt;" style="ellipse;whiteSpace=wrap;html=1;" parent="1" vertex="1">
          <mxGeometry x="1102" y="66" width="104" height="40" as="geometry" />
        </mxCell>
        <mxCell id="DgqKghVQSb-tML7D4mr0-52" value="estado" style="ellipse;whiteSpace=wrap;html=1;" parent="1" vertex="1">
          <mxGeometry x="1102" y="122" width="104" height="40" as="geometry" />
        </mxCell>
        <mxCell id="DgqKghVQSb-tML7D4mr0-53" value="descripción" style="ellipse;whiteSpace=wrap;html=1;" parent="1" vertex="1">
          <mxGeometry x="1102" y="182" width="104" height="40" as="geometry" />
        </mxCell>
        <mxCell id="DgqKghVQSb-tML7D4mr0-54" value="fecha" style="ellipse;whiteSpace=wrap;html=1;" parent="1" vertex="1">
          <mxGeometry x="1102" y="242" width="104" height="40" as="geometry" />
        </mxCell>
        <mxCell id="DgqKghVQSb-tML7D4mr0-59" value="monto" style="ellipse;whiteSpace=wrap;html=1;" parent="1" vertex="1">
          <mxGeometry x="564.5" y="412" width="104" height="40" as="geometry" />
        </mxCell>
        <mxCell id="DgqKghVQSb-tML7D4mr0-60" value="esPresencial" style="ellipse;whiteSpace=wrap;html=1;" parent="1" vertex="1">
          <mxGeometry x="672.5" y="412" width="104" height="40" as="geometry" />
        </mxCell>
        <mxCell id="DgqKghVQSb-tML7D4mr0-63" style="edgeStyle=none;curved=1;rounded=0;orthogonalLoop=1;jettySize=auto;html=1;exitX=0.5;exitY=1;exitDx=0;exitDy=0;entryX=0.5;entryY=0;entryDx=0;entryDy=0;fontSize=12;startSize=8;endSize=8;endArrow=none;endFill=0;" parent="1" source="DgqKghVQSb-tML7D4mr0-21" target="DgqKghVQSb-tML7D4mr0-65" edge="1">
          <mxGeometry relative="1" as="geometry">
            <mxPoint x="906" y="374" as="sourcePoint" />
          </mxGeometry>
        </mxCell>
        <mxCell id="DgqKghVQSb-tML7D4mr0-64" style="edgeStyle=none;curved=1;rounded=0;orthogonalLoop=1;jettySize=auto;html=1;exitX=0.5;exitY=1;exitDx=0;exitDy=0;entryX=0.5;entryY=0;entryDx=0;entryDy=0;fontSize=12;startSize=8;endSize=8;endArrow=none;endFill=0;" parent="1" source="DgqKghVQSb-tML7D4mr0-21" target="DgqKghVQSb-tML7D4mr0-66" edge="1">
          <mxGeometry relative="1" as="geometry">
            <mxPoint x="906" y="374" as="sourcePoint" />
          </mxGeometry>
        </mxCell>
        <mxCell id="DgqKghVQSb-tML7D4mr0-65" value="cantidad" style="ellipse;whiteSpace=wrap;html=1;" parent="1" vertex="1">
          <mxGeometry x="799.5" y="412" width="104" height="40" as="geometry" />
        </mxCell>
        <mxCell id="DgqKghVQSb-tML7D4mr0-66" value="descripción" style="ellipse;whiteSpace=wrap;html=1;" parent="1" vertex="1">
          <mxGeometry x="907.5" y="412" width="104" height="40" as="geometry" />
        </mxCell>
        <mxCell id="DgqKghVQSb-tML7D4mr0-73" style="edgeStyle=none;curved=1;rounded=0;orthogonalLoop=1;jettySize=auto;html=1;exitX=0.5;exitY=0;exitDx=0;exitDy=0;entryX=0.5;entryY=1;entryDx=0;entryDy=0;fontSize=12;startSize=8;endSize=8;endArrow=none;endFill=0;" parent="1" source="DgqKghVQSb-tML7D4mr0-67" target="DgqKghVQSb-tML7D4mr0-72" edge="1">
          <mxGeometry relative="1" as="geometry" />
        </mxCell>
        <mxCell id="DgqKghVQSb-tML7D4mr0-67" value="Área" style="rounded=0;whiteSpace=wrap;html=1;strokeWidth=3;" parent="1" vertex="1">
          <mxGeometry x="1728" y="-268" width="97" height="39" as="geometry" />
        </mxCell>
        <mxCell id="DgqKghVQSb-tML7D4mr0-69" style="edgeStyle=none;curved=1;rounded=0;orthogonalLoop=1;jettySize=auto;html=1;exitX=0.5;exitY=0;exitDx=0;exitDy=0;entryX=0.5;entryY=1;entryDx=0;entryDy=0;fontSize=12;startSize=8;endSize=8;endArrow=none;endFill=0;" parent="1" source="DgqKghVQSb-tML7D4mr0-68" target="DgqKghVQSb-tML7D4mr0-67" edge="1">
          <mxGeometry relative="1" as="geometry" />
        </mxCell>
        <mxCell id="DgqKghVQSb-tML7D4mr0-68" value="tiene" style="rhombus;whiteSpace=wrap;html=1;" parent="1" vertex="1">
          <mxGeometry x="1736.5" y="-165" width="80" height="80" as="geometry" />
        </mxCell>
        <mxCell id="DgqKghVQSb-tML7D4mr0-86" style="edgeStyle=orthogonalEdgeStyle;rounded=0;orthogonalLoop=1;jettySize=auto;html=1;exitX=0;exitY=0.5;exitDx=0;exitDy=0;entryX=0.5;entryY=1;entryDx=0;entryDy=0;fontSize=12;startSize=8;endSize=8;endArrow=none;endFill=0;" parent="1" source="DgqKghVQSb-tML7D4mr0-71" target="DgqKghVQSb-tML7D4mr0-11" edge="1">
          <mxGeometry relative="1" as="geometry">
            <Array as="points">
              <mxPoint x="1818" y="62" />
              <mxPoint x="1777" y="62" />
            </Array>
          </mxGeometry>
        </mxCell>
        <mxCell id="DgqKghVQSb-tML7D4mr0-112" style="rounded=0;orthogonalLoop=1;jettySize=auto;html=1;exitX=0.5;exitY=1;exitDx=0;exitDy=0;fontSize=12;startSize=8;endSize=8;endArrow=none;endFill=0;entryX=0.25;entryY=0;entryDx=0;entryDy=0;" parent="1" source="DgqKghVQSb-tML7D4mr0-71" target="DgqKghVQSb-tML7D4mr0-18" edge="1">
          <mxGeometry relative="1" as="geometry">
            <mxPoint x="1930.5" y="249" as="sourcePoint" />
            <mxPoint x="1904" y="328" as="targetPoint" />
          </mxGeometry>
        </mxCell>
        <mxCell id="DgqKghVQSb-tML7D4mr0-117" style="edgeStyle=orthogonalEdgeStyle;rounded=0;orthogonalLoop=1;jettySize=auto;html=1;exitX=1;exitY=0.5;exitDx=0;exitDy=0;entryX=0;entryY=0.5;entryDx=0;entryDy=0;fontSize=12;startSize=8;endSize=8;endArrow=none;endFill=0;" parent="1" source="Q6MzQbn6rYoNHMJF28ys-9" target="OiOX3Y-eicw3onZXfL4D-78" edge="1">
          <mxGeometry relative="1" as="geometry">
            <mxPoint x="2047" y="-263.75" as="sourcePoint" />
          </mxGeometry>
        </mxCell>
        <mxCell id="DgqKghVQSb-tML7D4mr0-189" style="edgeStyle=orthogonalEdgeStyle;rounded=0;orthogonalLoop=1;jettySize=auto;html=1;exitX=0;exitY=0.5;exitDx=0;exitDy=0;entryX=0.5;entryY=1;entryDx=0;entryDy=0;fontSize=12;startSize=8;endSize=8;endArrow=none;endFill=0;" parent="1" source="Q6MzQbn6rYoNHMJF28ys-6" target="OiOX3Y-eicw3onZXfL4D-29" edge="1">
          <mxGeometry relative="1" as="geometry">
            <Array as="points">
              <mxPoint x="1300" y="-2" />
              <mxPoint x="1300" y="317" />
              <mxPoint x="1010" y="317" />
            </Array>
          </mxGeometry>
        </mxCell>
        <mxCell id="DgqKghVQSb-tML7D4mr0-71" value="administra" style="rhombus;whiteSpace=wrap;html=1;" parent="1" vertex="1">
          <mxGeometry x="1867" y="21" width="80" height="80" as="geometry" />
        </mxCell>
        <mxCell id="DgqKghVQSb-tML7D4mr0-74" style="edgeStyle=none;curved=1;rounded=0;orthogonalLoop=1;jettySize=auto;html=1;exitX=0;exitY=0.5;exitDx=0;exitDy=0;entryX=0.5;entryY=1;entryDx=0;entryDy=0;fontSize=12;startSize=8;endSize=8;endArrow=none;endFill=0;" parent="1" source="DgqKghVQSb-tML7D4mr0-72" target="DgqKghVQSb-tML7D4mr0-7" edge="1">
          <mxGeometry relative="1" as="geometry" />
        </mxCell>
        <mxCell id="DgqKghVQSb-tML7D4mr0-75" style="edgeStyle=none;curved=1;rounded=0;orthogonalLoop=1;jettySize=auto;html=1;exitX=0.5;exitY=0;exitDx=0;exitDy=0;entryX=0.5;entryY=1;entryDx=0;entryDy=0;fontSize=12;startSize=8;endSize=8;endArrow=none;endFill=0;" parent="1" source="DgqKghVQSb-tML7D4mr0-72" target="DgqKghVQSb-tML7D4mr0-9" edge="1">
          <mxGeometry relative="1" as="geometry" />
        </mxCell>
        <mxCell id="DgqKghVQSb-tML7D4mr0-76" style="edgeStyle=none;curved=1;rounded=0;orthogonalLoop=1;jettySize=auto;html=1;exitX=1;exitY=0.5;exitDx=0;exitDy=0;entryX=0.5;entryY=1;entryDx=0;entryDy=0;fontSize=12;startSize=8;endSize=8;endArrow=none;endFill=0;" parent="1" source="DgqKghVQSb-tML7D4mr0-72" target="DgqKghVQSb-tML7D4mr0-8" edge="1">
          <mxGeometry relative="1" as="geometry" />
        </mxCell>
        <mxCell id="DgqKghVQSb-tML7D4mr0-72" value="d" style="ellipse;whiteSpace=wrap;html=1;" parent="1" vertex="1">
          <mxGeometry x="1766" y="-334" width="21" height="21" as="geometry" />
        </mxCell>
        <mxCell id="DgqKghVQSb-tML7D4mr0-91" style="rounded=0;orthogonalLoop=1;jettySize=auto;html=1;exitX=0;exitY=0.5;exitDx=0;exitDy=0;entryX=0.75;entryY=0;entryDx=0;entryDy=0;fontSize=12;startSize=8;endSize=8;endArrow=none;endFill=0;edgeStyle=orthogonalEdgeStyle;" parent="1" source="DgqKghVQSb-tML7D4mr0-87" target="DgqKghVQSb-tML7D4mr0-18" edge="1">
          <mxGeometry relative="1" as="geometry" />
        </mxCell>
        <mxCell id="DgqKghVQSb-tML7D4mr0-87" value="alberga" style="rhombus;whiteSpace=wrap;html=1;" parent="1" vertex="1">
          <mxGeometry x="2047" y="71" width="80" height="80" as="geometry" />
        </mxCell>
        <mxCell id="DgqKghVQSb-tML7D4mr0-92" style="edgeStyle=none;curved=1;rounded=0;orthogonalLoop=1;jettySize=auto;html=1;exitX=0.5;exitY=1;exitDx=0;exitDy=0;entryX=0.75;entryY=0;entryDx=0;entryDy=0;fontSize=12;startSize=8;endSize=8;endArrow=none;endFill=0;" parent="1" source="DgqKghVQSb-tML7D4mr0-88" target="OiOX3Y-eicw3onZXfL4D-54" edge="1">
          <mxGeometry relative="1" as="geometry" />
        </mxCell>
        <mxCell id="DgqKghVQSb-tML7D4mr0-192" style="edgeStyle=none;curved=1;rounded=0;orthogonalLoop=1;jettySize=auto;html=1;exitX=1;exitY=0.5;exitDx=0;exitDy=0;entryX=0;entryY=0.5;entryDx=0;entryDy=0;fontSize=12;startSize=8;endSize=8;endArrow=none;endFill=0;" parent="1" source="DgqKghVQSb-tML7D4mr0-88" target="DgqKghVQSb-tML7D4mr0-138" edge="1">
          <mxGeometry relative="1" as="geometry" />
        </mxCell>
        <mxCell id="DgqKghVQSb-tML7D4mr0-88" value="almacena" style="rhombus;whiteSpace=wrap;html=1;" parent="1" vertex="1">
          <mxGeometry x="2193" y="122.5" width="80" height="80" as="geometry" />
        </mxCell>
        <mxCell id="DgqKghVQSb-tML7D4mr0-95" style="edgeStyle=none;curved=1;rounded=0;orthogonalLoop=1;jettySize=auto;html=1;exitX=1;exitY=0.5;exitDx=0;exitDy=0;entryX=0;entryY=0.5;entryDx=0;entryDy=0;fontSize=12;startSize=8;endSize=8;endArrow=none;endFill=0;" parent="1" source="DgqKghVQSb-tML7D4mr0-93" target="DgqKghVQSb-tML7D4mr0-67" edge="1">
          <mxGeometry relative="1" as="geometry" />
        </mxCell>
        <mxCell id="DgqKghVQSb-tML7D4mr0-93" value="&lt;u&gt;nroÁrea&lt;/u&gt;" style="ellipse;whiteSpace=wrap;html=1;" parent="1" vertex="1">
          <mxGeometry x="1595" y="-295" width="104" height="40" as="geometry" />
        </mxCell>
        <mxCell id="DgqKghVQSb-tML7D4mr0-96" style="edgeStyle=none;curved=1;rounded=0;orthogonalLoop=1;jettySize=auto;html=1;exitX=1;exitY=0.5;exitDx=0;exitDy=0;fontSize=12;startSize=8;endSize=8;entryX=0;entryY=0.5;entryDx=0;entryDy=0;endArrow=none;endFill=0;" parent="1" source="DgqKghVQSb-tML7D4mr0-94" target="DgqKghVQSb-tML7D4mr0-67" edge="1">
          <mxGeometry relative="1" as="geometry">
            <mxPoint x="1719" y="-221" as="targetPoint" />
          </mxGeometry>
        </mxCell>
        <mxCell id="DgqKghVQSb-tML7D4mr0-94" value="nombre" style="ellipse;whiteSpace=wrap;html=1;" parent="1" vertex="1">
          <mxGeometry x="1595" y="-241" width="104" height="40" as="geometry" />
        </mxCell>
        <mxCell id="DgqKghVQSb-tML7D4mr0-97" value="&lt;u&gt;nroMisión&lt;/u&gt;" style="ellipse;whiteSpace=wrap;html=1;" parent="1" vertex="1">
          <mxGeometry x="1730" y="293.5" width="104" height="40" as="geometry" />
        </mxCell>
        <mxCell id="DgqKghVQSb-tML7D4mr0-98" value="estado" style="ellipse;whiteSpace=wrap;html=1;" parent="1" vertex="1">
          <mxGeometry x="1730" y="347.5" width="104" height="40" as="geometry" />
        </mxCell>
        <mxCell id="DgqKghVQSb-tML7D4mr0-99" value="fecha" style="ellipse;whiteSpace=wrap;html=1;" parent="1" vertex="1">
          <mxGeometry x="1730" y="401.5" width="104" height="40" as="geometry" />
        </mxCell>
        <mxCell id="DgqKghVQSb-tML7D4mr0-100" value="&lt;u&gt;nroAdopción&lt;/u&gt;" style="ellipse;whiteSpace=wrap;html=1;" parent="1" vertex="1">
          <mxGeometry x="2008" y="263" width="104" height="40" as="geometry" />
        </mxCell>
        <mxCell id="DgqKghVQSb-tML7D4mr0-101" value="estado" style="ellipse;whiteSpace=wrap;html=1;" parent="1" vertex="1">
          <mxGeometry x="2008" y="318" width="104" height="40" as="geometry" />
        </mxCell>
        <mxCell id="DgqKghVQSb-tML7D4mr0-102" value="descripción" style="ellipse;whiteSpace=wrap;html=1;" parent="1" vertex="1">
          <mxGeometry x="2008" y="372" width="104" height="40" as="geometry" />
        </mxCell>
        <mxCell id="DgqKghVQSb-tML7D4mr0-103" value="fechaIngreso" style="ellipse;whiteSpace=wrap;html=1;" parent="1" vertex="1">
          <mxGeometry x="2008" y="425" width="104" height="40" as="geometry" />
        </mxCell>
        <mxCell id="DgqKghVQSb-tML7D4mr0-104" value="&lt;u&gt;nroInsumo&lt;/u&gt;" style="ellipse;whiteSpace=wrap;html=1;" parent="1" vertex="1">
          <mxGeometry x="2285" y="291.5" width="104" height="40" as="geometry" />
        </mxCell>
        <mxCell id="DgqKghVQSb-tML7D4mr0-105" value="nombre" style="ellipse;whiteSpace=wrap;html=1;" parent="1" vertex="1">
          <mxGeometry x="2285" y="346" width="104" height="40" as="geometry" />
        </mxCell>
        <mxCell id="DgqKghVQSb-tML7D4mr0-106" value="descripción" style="ellipse;whiteSpace=wrap;html=1;" parent="1" vertex="1">
          <mxGeometry x="2285" y="398.5" width="104" height="40" as="geometry" />
        </mxCell>
        <mxCell id="DgqKghVQSb-tML7D4mr0-107" value="&lt;u&gt;nroGasto&lt;/u&gt;" style="ellipse;whiteSpace=wrap;html=1;" parent="1" vertex="1">
          <mxGeometry x="2310" y="-403.5" width="104" height="40" as="geometry" />
        </mxCell>
        <mxCell id="DgqKghVQSb-tML7D4mr0-108" value="monto" style="ellipse;whiteSpace=wrap;html=1;" parent="1" vertex="1">
          <mxGeometry x="2310" y="-345" width="104" height="40" as="geometry" />
        </mxCell>
        <mxCell id="DgqKghVQSb-tML7D4mr0-109" value="observación" style="ellipse;whiteSpace=wrap;html=1;" parent="1" vertex="1">
          <mxGeometry x="2310" y="-285" width="104" height="40" as="geometry" />
        </mxCell>
        <mxCell id="DgqKghVQSb-tML7D4mr0-110" value="tipo" style="ellipse;whiteSpace=wrap;html=1;" parent="1" vertex="1">
          <mxGeometry x="2310" y="-225" width="104" height="40" as="geometry" />
        </mxCell>
        <mxCell id="DgqKghVQSb-tML7D4mr0-111" value="fecha" style="ellipse;whiteSpace=wrap;html=1;" parent="1" vertex="1">
          <mxGeometry x="2310" y="-165" width="104" height="40" as="geometry" />
        </mxCell>
        <mxCell id="DgqKghVQSb-tML7D4mr0-113" value="&lt;u&gt;patente&lt;/u&gt;" style="ellipse;whiteSpace=wrap;html=1;" parent="1" vertex="1">
          <mxGeometry x="1451" y="293.5" width="104" height="40" as="geometry" />
        </mxCell>
        <mxCell id="DgqKghVQSb-tML7D4mr0-114" value="estado" style="ellipse;whiteSpace=wrap;html=1;" parent="1" vertex="1">
          <mxGeometry x="1451" y="347.5" width="104" height="40" as="geometry" />
        </mxCell>
        <mxCell id="DgqKghVQSb-tML7D4mr0-115" value="fechaIngreso" style="ellipse;whiteSpace=wrap;html=1;" parent="1" vertex="1">
          <mxGeometry x="1451" y="401.5" width="104" height="40" as="geometry" />
        </mxCell>
        <mxCell id="DgqKghVQSb-tML7D4mr0-138" value="&lt;div&gt;stock&lt;/div&gt;" style="ellipse;whiteSpace=wrap;html=1;" parent="1" vertex="1">
          <mxGeometry x="2310" y="143" width="104" height="40" as="geometry" />
        </mxCell>
        <mxCell id="DgqKghVQSb-tML7D4mr0-144" style="edgeStyle=none;curved=1;rounded=0;orthogonalLoop=1;jettySize=auto;html=1;exitX=1;exitY=0.5;exitDx=0;exitDy=0;entryX=0;entryY=0.5;entryDx=0;entryDy=0;fontSize=12;startSize=8;endSize=8;endArrow=none;endFill=0;" parent="1" source="DgqKghVQSb-tML7D4mr0-142" target="OiOX3Y-eicw3onZXfL4D-121" edge="1">
          <mxGeometry relative="1" as="geometry" />
        </mxCell>
        <mxCell id="DgqKghVQSb-tML7D4mr0-142" value="trabajaEn" style="rhombus;whiteSpace=wrap;html=1;" parent="1" vertex="1">
          <mxGeometry x="2008" y="-42.5" width="80" height="80" as="geometry" />
        </mxCell>
        <mxCell id="DgqKghVQSb-tML7D4mr0-145" value="tiene" style="rhombus;whiteSpace=wrap;html=1;" parent="1" vertex="1">
          <mxGeometry x="1473" y="176" width="80" height="80" as="geometry" />
        </mxCell>
        <mxCell id="DgqKghVQSb-tML7D4mr0-154" style="edgeStyle=orthogonalEdgeStyle;rounded=0;orthogonalLoop=1;jettySize=auto;html=1;exitX=1;exitY=0.5;exitDx=0;exitDy=0;entryX=0.25;entryY=1;entryDx=0;entryDy=0;fontSize=12;startSize=8;endSize=8;endArrow=none;endFill=0;" parent="1" source="DgqKghVQSb-tML7D4mr0-151" target="DgqKghVQSb-tML7D4mr0-11" edge="1">
          <mxGeometry relative="1" as="geometry" />
        </mxCell>
        <mxCell id="DgqKghVQSb-tML7D4mr0-151" value="tiene" style="rhombus;whiteSpace=wrap;html=1;" parent="1" vertex="1">
          <mxGeometry x="1614.5" y="22" width="80" height="80" as="geometry" />
        </mxCell>
        <mxCell id="DgqKghVQSb-tML7D4mr0-156" style="edgeStyle=orthogonalEdgeStyle;rounded=0;orthogonalLoop=1;jettySize=auto;html=1;exitX=0;exitY=0.5;exitDx=0;exitDy=0;entryX=1;entryY=0.5;entryDx=0;entryDy=0;fontSize=12;startSize=8;endSize=8;endArrow=none;endFill=0;" parent="1" source="DgqKghVQSb-tML7D4mr0-155" target="DgqKghVQSb-tML7D4mr0-21" edge="1">
          <mxGeometry relative="1" as="geometry">
            <Array as="points">
              <mxPoint x="1150" y="537" />
              <mxPoint x="1150" y="355" />
            </Array>
          </mxGeometry>
        </mxCell>
        <mxCell id="DgqKghVQSb-tML7D4mr0-157" style="edgeStyle=none;curved=1;rounded=0;orthogonalLoop=1;jettySize=auto;html=1;exitX=0.5;exitY=0;exitDx=0;exitDy=0;entryX=0.5;entryY=1;entryDx=0;entryDy=0;fontSize=12;startSize=8;endSize=8;endArrow=none;endFill=0;" parent="1" source="DgqKghVQSb-tML7D4mr0-155" target="OiOX3Y-eicw3onZXfL4D-54" edge="1">
          <mxGeometry relative="1" as="geometry" />
        </mxCell>
        <mxCell id="DgqKghVQSb-tML7D4mr0-155" value="tiene" style="rhombus;whiteSpace=wrap;html=1;" parent="1" vertex="1">
          <mxGeometry x="2168.5" y="497" width="80" height="80" as="geometry" />
        </mxCell>
        <mxCell id="DgqKghVQSb-tML7D4mr0-183" value="&lt;u&gt;nroRefugio&lt;/u&gt;" style="ellipse;whiteSpace=wrap;html=1;" parent="1" vertex="1">
          <mxGeometry x="2310" y="-85" width="104" height="40" as="geometry" />
        </mxCell>
        <mxCell id="DgqKghVQSb-tML7D4mr0-184" value="nombre" style="ellipse;whiteSpace=wrap;html=1;" parent="1" vertex="1">
          <mxGeometry x="2310" y="-33" width="104" height="40" as="geometry" />
        </mxCell>
        <mxCell id="DgqKghVQSb-tML7D4mr0-185" value="dirección" style="ellipse;whiteSpace=wrap;html=1;" parent="1" vertex="1">
          <mxGeometry x="2310" y="17" width="104" height="40" as="geometry" />
        </mxCell>
        <mxCell id="DgqKghVQSb-tML7D4mr0-315" style="edgeStyle=orthogonalEdgeStyle;rounded=0;orthogonalLoop=1;jettySize=auto;html=1;exitX=0.5;exitY=1;exitDx=0;exitDy=0;entryX=0.5;entryY=1;entryDx=0;entryDy=0;fontSize=12;startSize=8;endSize=8;" parent="1" source="DgqKghVQSb-tML7D4mr0-193" target="DgqKghVQSb-tML7D4mr0-194" edge="1">
          <mxGeometry relative="1" as="geometry" />
        </mxCell>
        <mxCell id="DgqKghVQSb-tML7D4mr0-316" style="edgeStyle=orthogonalEdgeStyle;rounded=0;orthogonalLoop=1;jettySize=auto;html=1;exitX=0.5;exitY=1;exitDx=0;exitDy=0;entryX=0.5;entryY=1;entryDx=0;entryDy=0;fontSize=12;startSize=8;endSize=8;" parent="1" source="DgqKghVQSb-tML7D4mr0-193" target="DgqKghVQSb-tML7D4mr0-195" edge="1">
          <mxGeometry relative="1" as="geometry" />
        </mxCell>
        <mxCell id="DgqKghVQSb-tML7D4mr0-317" style="edgeStyle=orthogonalEdgeStyle;rounded=0;orthogonalLoop=1;jettySize=auto;html=1;exitX=0.5;exitY=1;exitDx=0;exitDy=0;entryX=0.5;entryY=1;entryDx=0;entryDy=0;fontSize=12;startSize=8;endSize=8;" parent="1" source="DgqKghVQSb-tML7D4mr0-193" target="DgqKghVQSb-tML7D4mr0-196" edge="1">
          <mxGeometry relative="1" as="geometry" />
        </mxCell>
        <mxCell id="DgqKghVQSb-tML7D4mr0-318" style="edgeStyle=orthogonalEdgeStyle;rounded=0;orthogonalLoop=1;jettySize=auto;html=1;exitX=0.5;exitY=1;exitDx=0;exitDy=0;entryX=0.5;entryY=1;entryDx=0;entryDy=0;fontSize=12;startSize=8;endSize=8;" parent="1" source="DgqKghVQSb-tML7D4mr0-193" target="DgqKghVQSb-tML7D4mr0-200" edge="1">
          <mxGeometry relative="1" as="geometry" />
        </mxCell>
        <mxCell id="DgqKghVQSb-tML7D4mr0-321" style="edgeStyle=orthogonalEdgeStyle;rounded=0;orthogonalLoop=1;jettySize=auto;html=1;exitX=0.25;exitY=1;exitDx=0;exitDy=0;entryX=0.25;entryY=1;entryDx=0;entryDy=0;fontSize=12;startSize=8;endSize=8;" parent="1" source="DgqKghVQSb-tML7D4mr0-193" target="DgqKghVQSb-tML7D4mr0-202" edge="1">
          <mxGeometry relative="1" as="geometry">
            <Array as="points">
              <mxPoint x="3012" y="299" />
              <mxPoint x="2972" y="299" />
              <mxPoint x="2972" y="396" />
              <mxPoint x="3012" y="396" />
            </Array>
          </mxGeometry>
        </mxCell>
        <mxCell id="DgqKghVQSb-tML7D4mr0-323" style="edgeStyle=orthogonalEdgeStyle;rounded=0;orthogonalLoop=1;jettySize=auto;html=1;exitX=0.25;exitY=1;exitDx=0;exitDy=0;entryX=0.116;entryY=0.99;entryDx=0;entryDy=0;fontSize=12;startSize=8;endSize=8;entryPerimeter=0;" parent="1" source="DgqKghVQSb-tML7D4mr0-193" target="DgqKghVQSb-tML7D4mr0-208" edge="1">
          <mxGeometry relative="1" as="geometry">
            <Array as="points">
              <mxPoint x="3012" y="299" />
              <mxPoint x="2972" y="299" />
              <mxPoint x="2972" y="396" />
              <mxPoint x="3101" y="396" />
            </Array>
          </mxGeometry>
        </mxCell>
        <mxCell id="DgqKghVQSb-tML7D4mr0-193" value="nroUsuario" style="rounded=0;whiteSpace=wrap;html=1;fillColor=#E6E6E6;fontStyle=4" parent="1" vertex="1">
          <mxGeometry x="2992" y="253" width="81" height="25" as="geometry" />
        </mxCell>
        <mxCell id="DgqKghVQSb-tML7D4mr0-194" value="nombre" style="rounded=0;whiteSpace=wrap;html=1;fillColor=#E6E6E6;" parent="1" vertex="1">
          <mxGeometry x="3073" y="253" width="81" height="25" as="geometry" />
        </mxCell>
        <mxCell id="DgqKghVQSb-tML7D4mr0-195" value="apellido" style="rounded=0;whiteSpace=wrap;html=1;fillColor=#E6E6E6;" parent="1" vertex="1">
          <mxGeometry x="3154" y="253" width="81" height="25" as="geometry" />
        </mxCell>
        <mxCell id="DgqKghVQSb-tML7D4mr0-196" value="mail" style="rounded=0;whiteSpace=wrap;html=1;fillColor=#E6E6E6;" parent="1" vertex="1">
          <mxGeometry x="3235" y="253" width="81" height="25" as="geometry" />
        </mxCell>
        <mxCell id="DgqKghVQSb-tML7D4mr0-198" value="Usuario" style="rounded=0;whiteSpace=wrap;html=1;strokeColor=none;fontStyle=1;fontSize=14;align=left;" parent="1" vertex="1">
          <mxGeometry x="2992" y="228" width="60" height="18" as="geometry" />
        </mxCell>
        <mxCell id="DgqKghVQSb-tML7D4mr0-200" value="tipo" style="rounded=0;whiteSpace=wrap;html=1;fillColor=#E6E6E6;" parent="1" vertex="1">
          <mxGeometry x="3316" y="253" width="81" height="25" as="geometry" />
        </mxCell>
        <mxCell id="DgqKghVQSb-tML7D4mr0-202" value="nroUsuario" style="rounded=0;whiteSpace=wrap;html=1;fillColor=#E6E6E6;fontStyle=4" parent="1" vertex="1">
          <mxGeometry x="2992" y="351.25" width="81" height="25" as="geometry" />
        </mxCell>
        <mxCell id="DgqKghVQSb-tML7D4mr0-206" value="UsuarioExt" style="rounded=0;whiteSpace=wrap;html=1;strokeColor=none;fontStyle=1;fontSize=14;align=left;" parent="1" vertex="1">
          <mxGeometry x="2992" y="325.75" width="87" height="18" as="geometry" />
        </mxCell>
        <mxCell id="DgqKghVQSb-tML7D4mr0-319" style="edgeStyle=orthogonalEdgeStyle;rounded=0;orthogonalLoop=1;jettySize=auto;html=1;exitX=0.75;exitY=1;exitDx=0;exitDy=0;entryX=0.5;entryY=1;entryDx=0;entryDy=0;fontSize=12;startSize=8;endSize=8;" parent="1" source="DgqKghVQSb-tML7D4mr0-208" target="DgqKghVQSb-tML7D4mr0-209" edge="1">
          <mxGeometry relative="1" as="geometry" />
        </mxCell>
        <mxCell id="DgqKghVQSb-tML7D4mr0-320" style="edgeStyle=orthogonalEdgeStyle;rounded=0;orthogonalLoop=1;jettySize=auto;html=1;exitX=0.75;exitY=1;exitDx=0;exitDy=0;entryX=0.5;entryY=1;entryDx=0;entryDy=0;fontSize=12;startSize=8;endSize=8;" parent="1" source="DgqKghVQSb-tML7D4mr0-208" target="DgqKghVQSb-tML7D4mr0-210" edge="1">
          <mxGeometry relative="1" as="geometry" />
        </mxCell>
        <mxCell id="DgqKghVQSb-tML7D4mr0-208" value="nroUsuario" style="rounded=0;whiteSpace=wrap;html=1;fillColor=#E6E6E6;fontStyle=4" parent="1" vertex="1">
          <mxGeometry x="3087" y="351.25" width="121" height="25" as="geometry" />
        </mxCell>
        <mxCell id="DgqKghVQSb-tML7D4mr0-353" style="edgeStyle=orthogonalEdgeStyle;rounded=0;orthogonalLoop=1;jettySize=auto;html=1;exitX=0.5;exitY=0;exitDx=0;exitDy=0;entryX=0;entryY=0.5;entryDx=0;entryDy=0;fontSize=12;startSize=8;endSize=8;" parent="1" source="DgqKghVQSb-tML7D4mr0-209" target="DgqKghVQSb-tML7D4mr0-240" edge="1">
          <mxGeometry relative="1" as="geometry">
            <Array as="points">
              <mxPoint x="3249" y="309" />
              <mxPoint x="2946" y="309" />
              <mxPoint x="2946" y="-104" />
            </Array>
          </mxGeometry>
        </mxCell>
        <mxCell id="DgqKghVQSb-tML7D4mr0-209" value="nroÁrea" style="rounded=0;whiteSpace=wrap;html=1;fillColor=#E6E6E6;" parent="1" vertex="1">
          <mxGeometry x="3208" y="351.25" width="81" height="25" as="geometry" />
        </mxCell>
        <mxCell id="DgqKghVQSb-tML7D4mr0-354" style="edgeStyle=orthogonalEdgeStyle;rounded=0;orthogonalLoop=1;jettySize=auto;html=1;exitX=0.5;exitY=0;exitDx=0;exitDy=0;entryX=0;entryY=0.5;entryDx=0;entryDy=0;fontSize=12;startSize=8;endSize=8;" parent="1" source="DgqKghVQSb-tML7D4mr0-210" target="DgqKghVQSb-tML7D4mr0-245" edge="1">
          <mxGeometry relative="1" as="geometry">
            <Array as="points">
              <mxPoint x="3330" y="323" />
              <mxPoint x="2946" y="323" />
              <mxPoint x="2946" y="998" />
            </Array>
          </mxGeometry>
        </mxCell>
        <mxCell id="DgqKghVQSb-tML7D4mr0-210" value="nroRefugio" style="rounded=0;whiteSpace=wrap;html=1;fillColor=#E6E6E6;" parent="1" vertex="1">
          <mxGeometry x="3289" y="351.25" width="81" height="25" as="geometry" />
        </mxCell>
        <mxCell id="DgqKghVQSb-tML7D4mr0-212" value="UsuarioInt" style="rounded=0;whiteSpace=wrap;html=1;strokeColor=none;fontStyle=1;fontSize=14;align=left;" parent="1" vertex="1">
          <mxGeometry x="3087" y="325.75" width="79" height="18" as="geometry" />
        </mxCell>
        <mxCell id="DgqKghVQSb-tML7D4mr0-312" style="edgeStyle=orthogonalEdgeStyle;rounded=0;orthogonalLoop=1;jettySize=auto;html=1;exitX=0.5;exitY=1;exitDx=0;exitDy=0;entryX=0.5;entryY=1;entryDx=0;entryDy=0;fontSize=12;startSize=8;endSize=8;" parent="1" source="DgqKghVQSb-tML7D4mr0-214" target="DgqKghVQSb-tML7D4mr0-215" edge="1">
          <mxGeometry relative="1" as="geometry" />
        </mxCell>
        <mxCell id="DgqKghVQSb-tML7D4mr0-313" style="edgeStyle=orthogonalEdgeStyle;rounded=0;orthogonalLoop=1;jettySize=auto;html=1;exitX=0.5;exitY=1;exitDx=0;exitDy=0;entryX=0.5;entryY=1;entryDx=0;entryDy=0;fontSize=12;startSize=8;endSize=8;" parent="1" source="DgqKghVQSb-tML7D4mr0-214" target="DgqKghVQSb-tML7D4mr0-216" edge="1">
          <mxGeometry relative="1" as="geometry" />
        </mxCell>
        <mxCell id="DgqKghVQSb-tML7D4mr0-314" style="edgeStyle=orthogonalEdgeStyle;rounded=0;orthogonalLoop=1;jettySize=auto;html=1;exitX=0.5;exitY=1;exitDx=0;exitDy=0;entryX=0.5;entryY=1;entryDx=0;entryDy=0;fontSize=12;startSize=8;endSize=8;" parent="1" source="DgqKghVQSb-tML7D4mr0-214" target="DgqKghVQSb-tML7D4mr0-217" edge="1">
          <mxGeometry relative="1" as="geometry" />
        </mxCell>
        <mxCell id="DgqKghVQSb-tML7D4mr0-214" value="nroDonación" style="rounded=0;whiteSpace=wrap;html=1;fillColor=#E6E6E6;fontStyle=4" parent="1" vertex="1">
          <mxGeometry x="2994" y="161" width="81" height="25" as="geometry" />
        </mxCell>
        <mxCell id="DgqKghVQSb-tML7D4mr0-215" value="fecha" style="rounded=0;whiteSpace=wrap;html=1;fillColor=#E6E6E6;" parent="1" vertex="1">
          <mxGeometry x="3075" y="161" width="81" height="25" as="geometry" />
        </mxCell>
        <mxCell id="DgqKghVQSb-tML7D4mr0-216" value="monto" style="rounded=0;whiteSpace=wrap;html=1;fillColor=#E6E6E6;" parent="1" vertex="1">
          <mxGeometry x="3156" y="161" width="81" height="25" as="geometry" />
        </mxCell>
        <mxCell id="DgqKghVQSb-tML7D4mr0-217" value="esPresencial" style="rounded=0;whiteSpace=wrap;html=1;fillColor=#E6E6E6;" parent="1" vertex="1">
          <mxGeometry x="3237" y="161" width="81" height="25" as="geometry" />
        </mxCell>
        <mxCell id="DgqKghVQSb-tML7D4mr0-218" value="DonaciónDinero" style="rounded=0;whiteSpace=wrap;html=1;strokeColor=none;fontStyle=1;fontSize=14;align=left;" parent="1" vertex="1">
          <mxGeometry x="2994" y="137" width="115" height="18" as="geometry" />
        </mxCell>
        <mxCell id="DgqKghVQSb-tML7D4mr0-306" style="edgeStyle=orthogonalEdgeStyle;rounded=0;orthogonalLoop=1;jettySize=auto;html=1;exitX=0.5;exitY=1;exitDx=0;exitDy=0;entryX=0.5;entryY=1;entryDx=0;entryDy=0;fontSize=12;startSize=8;endSize=8;" parent="1" source="DgqKghVQSb-tML7D4mr0-226" target="DgqKghVQSb-tML7D4mr0-227" edge="1">
          <mxGeometry relative="1" as="geometry" />
        </mxCell>
        <mxCell id="DgqKghVQSb-tML7D4mr0-307" style="edgeStyle=orthogonalEdgeStyle;rounded=0;orthogonalLoop=1;jettySize=auto;html=1;exitX=0.5;exitY=1;exitDx=0;exitDy=0;entryX=0.5;entryY=1;entryDx=0;entryDy=0;fontSize=12;startSize=8;endSize=8;" parent="1" source="DgqKghVQSb-tML7D4mr0-226" target="DgqKghVQSb-tML7D4mr0-228" edge="1">
          <mxGeometry relative="1" as="geometry" />
        </mxCell>
        <mxCell id="DgqKghVQSb-tML7D4mr0-308" style="edgeStyle=orthogonalEdgeStyle;rounded=0;orthogonalLoop=1;jettySize=auto;html=1;exitX=0.5;exitY=1;exitDx=0;exitDy=0;entryX=0.5;entryY=1;entryDx=0;entryDy=0;fontSize=12;startSize=8;endSize=8;" parent="1" source="DgqKghVQSb-tML7D4mr0-226" target="DgqKghVQSb-tML7D4mr0-229" edge="1">
          <mxGeometry relative="1" as="geometry" />
        </mxCell>
        <mxCell id="DgqKghVQSb-tML7D4mr0-310" style="edgeStyle=orthogonalEdgeStyle;rounded=0;orthogonalLoop=1;jettySize=auto;html=1;exitX=0.5;exitY=1;exitDx=0;exitDy=0;entryX=0.5;entryY=1;entryDx=0;entryDy=0;fontSize=12;startSize=8;endSize=8;" parent="1" source="DgqKghVQSb-tML7D4mr0-226" target="DgqKghVQSb-tML7D4mr0-231" edge="1">
          <mxGeometry relative="1" as="geometry" />
        </mxCell>
        <mxCell id="DgqKghVQSb-tML7D4mr0-226" value="nroDonación" style="rounded=0;whiteSpace=wrap;html=1;fillColor=#E6E6E6;fontStyle=4" parent="1" vertex="1">
          <mxGeometry x="2994" y="65" width="81" height="25" as="geometry" />
        </mxCell>
        <mxCell id="DgqKghVQSb-tML7D4mr0-227" value="fecha" style="rounded=0;whiteSpace=wrap;html=1;fillColor=#E6E6E6;" parent="1" vertex="1">
          <mxGeometry x="3075" y="65" width="81" height="25" as="geometry" />
        </mxCell>
        <mxCell id="DgqKghVQSb-tML7D4mr0-228" value="cantidad" style="rounded=0;whiteSpace=wrap;html=1;fillColor=#E6E6E6;" parent="1" vertex="1">
          <mxGeometry x="3156" y="65" width="81" height="25" as="geometry" />
        </mxCell>
        <mxCell id="DgqKghVQSb-tML7D4mr0-229" value="descripción" style="rounded=0;whiteSpace=wrap;html=1;fillColor=#E6E6E6;" parent="1" vertex="1">
          <mxGeometry x="3237" y="65" width="81" height="25" as="geometry" />
        </mxCell>
        <mxCell id="DgqKghVQSb-tML7D4mr0-230" value="DonaciónInsumo" style="rounded=0;whiteSpace=wrap;html=1;strokeColor=none;fontStyle=1;fontSize=14;align=left;" parent="1" vertex="1">
          <mxGeometry x="2994" y="41" width="122" height="18" as="geometry" />
        </mxCell>
        <mxCell id="DgqKghVQSb-tML7D4mr0-346" style="edgeStyle=orthogonalEdgeStyle;rounded=0;orthogonalLoop=1;jettySize=auto;html=1;exitX=0.5;exitY=0;exitDx=0;exitDy=0;fontSize=12;startSize=8;endSize=8;entryX=0;entryY=0.5;entryDx=0;entryDy=0;" parent="1" source="DgqKghVQSb-tML7D4mr0-231" target="DgqKghVQSb-tML7D4mr0-275" edge="1">
          <mxGeometry relative="1" as="geometry">
            <mxPoint x="2969" y="829" as="targetPoint" />
            <Array as="points">
              <mxPoint x="3359" y="34" />
              <mxPoint x="2956" y="34" />
              <mxPoint x="2956" y="815" />
            </Array>
          </mxGeometry>
        </mxCell>
        <mxCell id="DgqKghVQSb-tML7D4mr0-231" value="nroInsumo" style="rounded=0;whiteSpace=wrap;html=1;fillColor=#E6E6E6;" parent="1" vertex="1">
          <mxGeometry x="3318" y="65" width="81" height="25" as="geometry" />
        </mxCell>
        <mxCell id="DgqKghVQSb-tML7D4mr0-301" style="edgeStyle=orthogonalEdgeStyle;rounded=0;orthogonalLoop=1;jettySize=auto;html=1;exitX=0.5;exitY=1;exitDx=0;exitDy=0;entryX=0.5;entryY=1;entryDx=0;entryDy=0;fontSize=12;startSize=8;endSize=8;" parent="1" source="DgqKghVQSb-tML7D4mr0-232" target="DgqKghVQSb-tML7D4mr0-233" edge="1">
          <mxGeometry relative="1" as="geometry" />
        </mxCell>
        <mxCell id="DgqKghVQSb-tML7D4mr0-302" style="edgeStyle=orthogonalEdgeStyle;rounded=0;orthogonalLoop=1;jettySize=auto;html=1;exitX=0.5;exitY=1;exitDx=0;exitDy=0;entryX=0.5;entryY=1;entryDx=0;entryDy=0;fontSize=12;startSize=8;endSize=8;" parent="1" source="DgqKghVQSb-tML7D4mr0-232" target="DgqKghVQSb-tML7D4mr0-234" edge="1">
          <mxGeometry relative="1" as="geometry" />
        </mxCell>
        <mxCell id="DgqKghVQSb-tML7D4mr0-303" style="edgeStyle=orthogonalEdgeStyle;rounded=0;orthogonalLoop=1;jettySize=auto;html=1;exitX=0.5;exitY=1;exitDx=0;exitDy=0;entryX=0.5;entryY=1;entryDx=0;entryDy=0;fontSize=12;startSize=8;endSize=8;" parent="1" source="DgqKghVQSb-tML7D4mr0-232" target="DgqKghVQSb-tML7D4mr0-235" edge="1">
          <mxGeometry relative="1" as="geometry" />
        </mxCell>
        <mxCell id="DgqKghVQSb-tML7D4mr0-304" style="edgeStyle=orthogonalEdgeStyle;rounded=0;orthogonalLoop=1;jettySize=auto;html=1;exitX=0.5;exitY=1;exitDx=0;exitDy=0;entryX=0.5;entryY=1;entryDx=0;entryDy=0;fontSize=12;startSize=8;endSize=8;" parent="1" source="DgqKghVQSb-tML7D4mr0-232" target="DgqKghVQSb-tML7D4mr0-237" edge="1">
          <mxGeometry relative="1" as="geometry" />
        </mxCell>
        <mxCell id="DgqKghVQSb-tML7D4mr0-305" style="edgeStyle=orthogonalEdgeStyle;rounded=0;orthogonalLoop=1;jettySize=auto;html=1;exitX=0.5;exitY=1;exitDx=0;exitDy=0;entryX=0.5;entryY=1;entryDx=0;entryDy=0;fontSize=12;startSize=8;endSize=8;" parent="1" source="DgqKghVQSb-tML7D4mr0-232" target="DgqKghVQSb-tML7D4mr0-238" edge="1">
          <mxGeometry relative="1" as="geometry" />
        </mxCell>
        <mxCell id="DgqKghVQSb-tML7D4mr0-232" value="nroCaso" style="rounded=0;whiteSpace=wrap;html=1;fillColor=#E6E6E6;fontStyle=4" parent="1" vertex="1">
          <mxGeometry x="2994" y="-31" width="81" height="25" as="geometry" />
        </mxCell>
        <mxCell id="DgqKghVQSb-tML7D4mr0-233" value="estado" style="rounded=0;whiteSpace=wrap;html=1;fillColor=#E6E6E6;" parent="1" vertex="1">
          <mxGeometry x="3075" y="-31" width="81" height="25" as="geometry" />
        </mxCell>
        <mxCell id="DgqKghVQSb-tML7D4mr0-234" value="descripción" style="rounded=0;whiteSpace=wrap;html=1;fillColor=#E6E6E6;" parent="1" vertex="1">
          <mxGeometry x="3156" y="-31" width="81" height="25" as="geometry" />
        </mxCell>
        <mxCell id="DgqKghVQSb-tML7D4mr0-235" value="fecha" style="rounded=0;whiteSpace=wrap;html=1;fillColor=#E6E6E6;" parent="1" vertex="1">
          <mxGeometry x="3237" y="-31" width="81" height="25" as="geometry" />
        </mxCell>
        <mxCell id="DgqKghVQSb-tML7D4mr0-236" value="Caso" style="rounded=0;whiteSpace=wrap;html=1;strokeColor=none;fontStyle=1;fontSize=14;align=left;" parent="1" vertex="1">
          <mxGeometry x="2994" y="-55" width="122" height="18" as="geometry" />
        </mxCell>
        <mxCell id="DgqKghVQSb-tML7D4mr0-344" style="edgeStyle=orthogonalEdgeStyle;rounded=0;orthogonalLoop=1;jettySize=auto;html=1;exitX=0.5;exitY=0;exitDx=0;exitDy=0;fontSize=12;startSize=8;endSize=8;entryX=0.75;entryY=1;entryDx=0;entryDy=0;" parent="1" source="DgqKghVQSb-tML7D4mr0-237" target="DgqKghVQSb-tML7D4mr0-202" edge="1">
          <mxGeometry relative="1" as="geometry">
            <mxPoint x="3671" y="-120" as="targetPoint" />
            <Array as="points">
              <mxPoint x="3368" y="-69" />
              <mxPoint x="3597" y="-69" />
              <mxPoint x="3597" y="420" />
              <mxPoint x="3053" y="420" />
            </Array>
          </mxGeometry>
        </mxCell>
        <mxCell id="DgqKghVQSb-tML7D4mr0-237" value="nroUsuarioExt" style="rounded=0;whiteSpace=wrap;html=1;fillColor=#E6E6E6;" parent="1" vertex="1">
          <mxGeometry x="3318" y="-31" width="100" height="25" as="geometry" />
        </mxCell>
        <mxCell id="DgqKghVQSb-tML7D4mr0-345" style="edgeStyle=orthogonalEdgeStyle;rounded=0;orthogonalLoop=1;jettySize=auto;html=1;exitX=0.5;exitY=0;exitDx=0;exitDy=0;entryX=0.5;entryY=1;entryDx=0;entryDy=0;fontSize=12;startSize=8;endSize=8;" parent="1" source="DgqKghVQSb-tML7D4mr0-238" target="DgqKghVQSb-tML7D4mr0-208" edge="1">
          <mxGeometry relative="1" as="geometry">
            <Array as="points">
              <mxPoint x="3468" y="-43" />
              <mxPoint x="3570" y="-43" />
              <mxPoint x="3570" y="408" />
              <mxPoint x="3148" y="408" />
            </Array>
          </mxGeometry>
        </mxCell>
        <mxCell id="DgqKghVQSb-tML7D4mr0-238" value="nroUsuarioInt" style="rounded=0;whiteSpace=wrap;html=1;fillColor=#E6E6E6;" parent="1" vertex="1">
          <mxGeometry x="3418" y="-31" width="100" height="25" as="geometry" />
        </mxCell>
        <mxCell id="DgqKghVQSb-tML7D4mr0-300" style="edgeStyle=orthogonalEdgeStyle;rounded=0;orthogonalLoop=1;jettySize=auto;html=1;exitX=0.5;exitY=1;exitDx=0;exitDy=0;entryX=0.5;entryY=1;entryDx=0;entryDy=0;fontSize=12;startSize=8;endSize=8;" parent="1" source="DgqKghVQSb-tML7D4mr0-240" target="DgqKghVQSb-tML7D4mr0-241" edge="1">
          <mxGeometry relative="1" as="geometry" />
        </mxCell>
        <mxCell id="DgqKghVQSb-tML7D4mr0-240" value="nroÁrea" style="rounded=0;whiteSpace=wrap;html=1;fillColor=#E6E6E6;fontStyle=4" parent="1" vertex="1">
          <mxGeometry x="2994" y="-117" width="81" height="25" as="geometry" />
        </mxCell>
        <mxCell id="DgqKghVQSb-tML7D4mr0-241" value="nombre" style="rounded=0;whiteSpace=wrap;html=1;fillColor=#E6E6E6;" parent="1" vertex="1">
          <mxGeometry x="3075" y="-117" width="81" height="25" as="geometry" />
        </mxCell>
        <mxCell id="DgqKghVQSb-tML7D4mr0-244" value="Área" style="rounded=0;whiteSpace=wrap;html=1;strokeColor=none;fontStyle=1;fontSize=14;align=left;" parent="1" vertex="1">
          <mxGeometry x="2994" y="-141" width="115" height="18" as="geometry" />
        </mxCell>
        <mxCell id="DgqKghVQSb-tML7D4mr0-297" style="edgeStyle=orthogonalEdgeStyle;rounded=0;orthogonalLoop=1;jettySize=auto;html=1;exitX=0.5;exitY=1;exitDx=0;exitDy=0;entryX=0.5;entryY=1;entryDx=0;entryDy=0;fontSize=12;startSize=8;endSize=8;" parent="1" source="DgqKghVQSb-tML7D4mr0-245" target="DgqKghVQSb-tML7D4mr0-246" edge="1">
          <mxGeometry relative="1" as="geometry" />
        </mxCell>
        <mxCell id="DgqKghVQSb-tML7D4mr0-299" style="edgeStyle=orthogonalEdgeStyle;rounded=0;orthogonalLoop=1;jettySize=auto;html=1;exitX=0.5;exitY=1;exitDx=0;exitDy=0;entryX=0.5;entryY=1;entryDx=0;entryDy=0;fontSize=12;startSize=8;endSize=8;" parent="1" source="DgqKghVQSb-tML7D4mr0-245" target="DgqKghVQSb-tML7D4mr0-247" edge="1">
          <mxGeometry relative="1" as="geometry" />
        </mxCell>
        <mxCell id="DgqKghVQSb-tML7D4mr0-245" value="nroRefugio" style="rounded=0;whiteSpace=wrap;html=1;fillColor=#E6E6E6;fontStyle=4" parent="1" vertex="1">
          <mxGeometry x="2992" y="985" width="81" height="25" as="geometry" />
        </mxCell>
        <mxCell id="DgqKghVQSb-tML7D4mr0-246" value="nombre" style="rounded=0;whiteSpace=wrap;html=1;fillColor=#E6E6E6;" parent="1" vertex="1">
          <mxGeometry x="3072" y="985" width="82" height="25" as="geometry" />
        </mxCell>
        <mxCell id="DgqKghVQSb-tML7D4mr0-247" value="dirección" style="rounded=0;whiteSpace=wrap;html=1;fillColor=#E6E6E6;" parent="1" vertex="1">
          <mxGeometry x="3154" y="985" width="81" height="25" as="geometry" />
        </mxCell>
        <mxCell id="DgqKghVQSb-tML7D4mr0-249" value="Refugio" style="rounded=0;whiteSpace=wrap;html=1;strokeColor=none;fontStyle=1;fontSize=14;align=left;" parent="1" vertex="1">
          <mxGeometry x="2992" y="961" width="122" height="18" as="geometry" />
        </mxCell>
        <mxCell id="DgqKghVQSb-tML7D4mr0-324" style="edgeStyle=orthogonalEdgeStyle;rounded=0;orthogonalLoop=1;jettySize=auto;html=1;exitX=0.5;exitY=1;exitDx=0;exitDy=0;entryX=0.5;entryY=1;entryDx=0;entryDy=0;fontSize=12;startSize=8;endSize=8;" parent="1" source="DgqKghVQSb-tML7D4mr0-251" target="DgqKghVQSb-tML7D4mr0-252" edge="1">
          <mxGeometry relative="1" as="geometry" />
        </mxCell>
        <mxCell id="DgqKghVQSb-tML7D4mr0-325" style="edgeStyle=orthogonalEdgeStyle;rounded=0;orthogonalLoop=1;jettySize=auto;html=1;exitX=0.5;exitY=1;exitDx=0;exitDy=0;entryX=0.5;entryY=1;entryDx=0;entryDy=0;fontSize=12;startSize=8;endSize=8;" parent="1" source="DgqKghVQSb-tML7D4mr0-251" target="DgqKghVQSb-tML7D4mr0-253" edge="1">
          <mxGeometry relative="1" as="geometry" />
        </mxCell>
        <mxCell id="DgqKghVQSb-tML7D4mr0-251" value="patente" style="rounded=0;whiteSpace=wrap;html=1;fillColor=#E6E6E6;fontStyle=4" parent="1" vertex="1">
          <mxGeometry x="2992" y="447" width="81" height="25" as="geometry" />
        </mxCell>
        <mxCell id="DgqKghVQSb-tML7D4mr0-252" value="estado" style="rounded=0;whiteSpace=wrap;html=1;fillColor=#E6E6E6;" parent="1" vertex="1">
          <mxGeometry x="3073" y="447" width="81" height="25" as="geometry" />
        </mxCell>
        <mxCell id="DgqKghVQSb-tML7D4mr0-253" value="fechaIngreso" style="rounded=0;whiteSpace=wrap;html=1;fillColor=#E6E6E6;" parent="1" vertex="1">
          <mxGeometry x="3154" y="447" width="92" height="25" as="geometry" />
        </mxCell>
        <mxCell id="DgqKghVQSb-tML7D4mr0-255" value="Vehículo" style="rounded=0;whiteSpace=wrap;html=1;strokeColor=none;fontStyle=1;fontSize=14;align=left;" parent="1" vertex="1">
          <mxGeometry x="2992" y="423" width="122" height="18" as="geometry" />
        </mxCell>
        <mxCell id="DgqKghVQSb-tML7D4mr0-326" style="edgeStyle=orthogonalEdgeStyle;rounded=0;orthogonalLoop=1;jettySize=auto;html=1;exitX=0.5;exitY=1;exitDx=0;exitDy=0;entryX=0.5;entryY=1;entryDx=0;entryDy=0;fontSize=12;startSize=8;endSize=8;" parent="1" source="DgqKghVQSb-tML7D4mr0-257" target="DgqKghVQSb-tML7D4mr0-258" edge="1">
          <mxGeometry relative="1" as="geometry" />
        </mxCell>
        <mxCell id="DgqKghVQSb-tML7D4mr0-327" style="edgeStyle=orthogonalEdgeStyle;rounded=0;orthogonalLoop=1;jettySize=auto;html=1;exitX=0.5;exitY=1;exitDx=0;exitDy=0;entryX=0.5;entryY=1;entryDx=0;entryDy=0;fontSize=12;startSize=8;endSize=8;" parent="1" source="DgqKghVQSb-tML7D4mr0-257" target="DgqKghVQSb-tML7D4mr0-259" edge="1">
          <mxGeometry relative="1" as="geometry" />
        </mxCell>
        <mxCell id="DgqKghVQSb-tML7D4mr0-328" style="edgeStyle=orthogonalEdgeStyle;rounded=0;orthogonalLoop=1;jettySize=auto;html=1;exitX=0.5;exitY=1;exitDx=0;exitDy=0;entryX=0.5;entryY=1;entryDx=0;entryDy=0;fontSize=12;startSize=8;endSize=8;" parent="1" source="DgqKghVQSb-tML7D4mr0-257" target="DgqKghVQSb-tML7D4mr0-260" edge="1">
          <mxGeometry relative="1" as="geometry" />
        </mxCell>
        <mxCell id="DgqKghVQSb-tML7D4mr0-257" value="nroMisión" style="rounded=0;whiteSpace=wrap;html=1;fillColor=#E6E6E6;fontStyle=4" parent="1" vertex="1">
          <mxGeometry x="2992" y="536" width="81" height="25" as="geometry" />
        </mxCell>
        <mxCell id="DgqKghVQSb-tML7D4mr0-258" value="estado" style="rounded=0;whiteSpace=wrap;html=1;fillColor=#E6E6E6;" parent="1" vertex="1">
          <mxGeometry x="3073" y="536" width="81" height="25" as="geometry" />
        </mxCell>
        <mxCell id="DgqKghVQSb-tML7D4mr0-259" value="fecha" style="rounded=0;whiteSpace=wrap;html=1;fillColor=#E6E6E6;" parent="1" vertex="1">
          <mxGeometry x="3154" y="536" width="81" height="25" as="geometry" />
        </mxCell>
        <mxCell id="DgqKghVQSb-tML7D4mr0-355" style="edgeStyle=orthogonalEdgeStyle;rounded=0;orthogonalLoop=1;jettySize=auto;html=1;exitX=0.5;exitY=0;exitDx=0;exitDy=0;entryX=0.25;entryY=1;entryDx=0;entryDy=0;fontSize=12;startSize=8;endSize=8;" parent="1" source="DgqKghVQSb-tML7D4mr0-260" target="DgqKghVQSb-tML7D4mr0-251" edge="1">
          <mxGeometry relative="1" as="geometry" />
        </mxCell>
        <mxCell id="DgqKghVQSb-tML7D4mr0-260" value="patente" style="rounded=0;whiteSpace=wrap;html=1;fillColor=#E6E6E6;" parent="1" vertex="1">
          <mxGeometry x="3235" y="536" width="81" height="25" as="geometry" />
        </mxCell>
        <mxCell id="DgqKghVQSb-tML7D4mr0-261" value="Misión" style="rounded=0;whiteSpace=wrap;html=1;strokeColor=none;fontStyle=1;fontSize=14;align=left;" parent="1" vertex="1">
          <mxGeometry x="2992" y="512" width="115" height="18" as="geometry" />
        </mxCell>
        <mxCell id="DgqKghVQSb-tML7D4mr0-351" style="edgeStyle=orthogonalEdgeStyle;rounded=0;orthogonalLoop=1;jettySize=auto;html=1;exitX=0;exitY=0.5;exitDx=0;exitDy=0;entryX=0;entryY=0.5;entryDx=0;entryDy=0;fontSize=12;startSize=8;endSize=8;" parent="1" source="DgqKghVQSb-tML7D4mr0-262" target="DgqKghVQSb-tML7D4mr0-257" edge="1">
          <mxGeometry relative="1" as="geometry">
            <Array as="points">
              <mxPoint x="2967" y="639" />
              <mxPoint x="2967" y="549" />
            </Array>
          </mxGeometry>
        </mxCell>
        <mxCell id="DgqKghVQSb-tML7D4mr0-262" value="nroMisión" style="rounded=0;whiteSpace=wrap;html=1;fillColor=#E6E6E6;fontStyle=4" parent="1" vertex="1">
          <mxGeometry x="2992" y="626.5" width="81" height="25" as="geometry" />
        </mxCell>
        <mxCell id="DgqKghVQSb-tML7D4mr0-263" value="nroUsuarioInt" style="rounded=0;whiteSpace=wrap;html=1;fillColor=#E6E6E6;fontStyle=4" parent="1" vertex="1">
          <mxGeometry x="3073" y="626.5" width="92" height="25" as="geometry" />
        </mxCell>
        <mxCell id="DgqKghVQSb-tML7D4mr0-266" value="UsuarioIntMisión" style="rounded=0;whiteSpace=wrap;html=1;strokeColor=none;fontStyle=1;fontSize=14;align=left;" parent="1" vertex="1">
          <mxGeometry x="2992" y="602.5" width="115" height="18" as="geometry" />
        </mxCell>
        <mxCell id="DgqKghVQSb-tML7D4mr0-330" style="edgeStyle=orthogonalEdgeStyle;rounded=0;orthogonalLoop=1;jettySize=auto;html=1;exitX=0.5;exitY=1;exitDx=0;exitDy=0;entryX=0.5;entryY=1;entryDx=0;entryDy=0;fontSize=12;startSize=8;endSize=8;" parent="1" source="DgqKghVQSb-tML7D4mr0-267" target="DgqKghVQSb-tML7D4mr0-268" edge="1">
          <mxGeometry relative="1" as="geometry" />
        </mxCell>
        <mxCell id="DgqKghVQSb-tML7D4mr0-331" style="edgeStyle=orthogonalEdgeStyle;rounded=0;orthogonalLoop=1;jettySize=auto;html=1;exitX=0.5;exitY=1;exitDx=0;exitDy=0;entryX=0.5;entryY=1;entryDx=0;entryDy=0;fontSize=12;startSize=8;endSize=8;" parent="1" source="DgqKghVQSb-tML7D4mr0-267" target="DgqKghVQSb-tML7D4mr0-269" edge="1">
          <mxGeometry relative="1" as="geometry" />
        </mxCell>
        <mxCell id="DgqKghVQSb-tML7D4mr0-332" style="edgeStyle=orthogonalEdgeStyle;rounded=0;orthogonalLoop=1;jettySize=auto;html=1;exitX=0.5;exitY=1;exitDx=0;exitDy=0;entryX=0.5;entryY=1;entryDx=0;entryDy=0;fontSize=12;startSize=8;endSize=8;" parent="1" source="DgqKghVQSb-tML7D4mr0-267" target="DgqKghVQSb-tML7D4mr0-270" edge="1">
          <mxGeometry relative="1" as="geometry" />
        </mxCell>
        <mxCell id="DgqKghVQSb-tML7D4mr0-333" style="edgeStyle=orthogonalEdgeStyle;rounded=0;orthogonalLoop=1;jettySize=auto;html=1;exitX=0.5;exitY=1;exitDx=0;exitDy=0;entryX=0.5;entryY=1;entryDx=0;entryDy=0;fontSize=12;startSize=8;endSize=8;" parent="1" source="DgqKghVQSb-tML7D4mr0-267" target="DgqKghVQSb-tML7D4mr0-274" edge="1">
          <mxGeometry relative="1" as="geometry" />
        </mxCell>
        <mxCell id="DgqKghVQSb-tML7D4mr0-334" style="edgeStyle=orthogonalEdgeStyle;rounded=0;orthogonalLoop=1;jettySize=auto;html=1;exitX=0.5;exitY=1;exitDx=0;exitDy=0;entryX=0.5;entryY=1;entryDx=0;entryDy=0;fontSize=12;startSize=8;endSize=8;" parent="1" source="DgqKghVQSb-tML7D4mr0-267" target="DgqKghVQSb-tML7D4mr0-273" edge="1">
          <mxGeometry relative="1" as="geometry" />
        </mxCell>
        <mxCell id="DgqKghVQSb-tML7D4mr0-267" value="nroAdopción" style="rounded=0;whiteSpace=wrap;html=1;fillColor=#E6E6E6;fontStyle=4" parent="1" vertex="1">
          <mxGeometry x="2992" y="712.5" width="81" height="25" as="geometry" />
        </mxCell>
        <mxCell id="DgqKghVQSb-tML7D4mr0-268" value="estado" style="rounded=0;whiteSpace=wrap;html=1;fillColor=#E6E6E6;" parent="1" vertex="1">
          <mxGeometry x="3073" y="712.5" width="81" height="25" as="geometry" />
        </mxCell>
        <mxCell id="DgqKghVQSb-tML7D4mr0-269" value="descripción" style="rounded=0;whiteSpace=wrap;html=1;fillColor=#E6E6E6;" parent="1" vertex="1">
          <mxGeometry x="3154" y="712.5" width="81" height="25" as="geometry" />
        </mxCell>
        <mxCell id="DgqKghVQSb-tML7D4mr0-270" value="fechaIngreso" style="rounded=0;whiteSpace=wrap;html=1;fillColor=#E6E6E6;" parent="1" vertex="1">
          <mxGeometry x="3235" y="712.5" width="91" height="25" as="geometry" />
        </mxCell>
        <mxCell id="DgqKghVQSb-tML7D4mr0-271" value="AnimalEnAdopción" style="rounded=0;whiteSpace=wrap;html=1;strokeColor=none;fontStyle=1;fontSize=14;align=left;" parent="1" vertex="1">
          <mxGeometry x="2992" y="688.5" width="133" height="18" as="geometry" />
        </mxCell>
        <mxCell id="DgqKghVQSb-tML7D4mr0-350" style="edgeStyle=orthogonalEdgeStyle;rounded=0;orthogonalLoop=1;jettySize=auto;html=1;exitX=0.5;exitY=0;exitDx=0;exitDy=0;entryX=0.75;entryY=1;entryDx=0;entryDy=0;fontSize=12;startSize=8;endSize=8;" parent="1" source="DgqKghVQSb-tML7D4mr0-273" target="DgqKghVQSb-tML7D4mr0-245" edge="1">
          <mxGeometry relative="1" as="geometry">
            <Array as="points">
              <mxPoint x="3476" y="693" />
              <mxPoint x="3589" y="693" />
              <mxPoint x="3589" y="1044" />
              <mxPoint x="3053" y="1044" />
            </Array>
          </mxGeometry>
        </mxCell>
        <mxCell id="DgqKghVQSb-tML7D4mr0-273" value="nroRefugio" style="rounded=0;whiteSpace=wrap;html=1;fillColor=#E6E6E6;" parent="1" vertex="1">
          <mxGeometry x="3426" y="712.5" width="100" height="25" as="geometry" />
        </mxCell>
        <mxCell id="DgqKghVQSb-tML7D4mr0-357" style="edgeStyle=orthogonalEdgeStyle;rounded=0;orthogonalLoop=1;jettySize=auto;html=1;exitX=0.5;exitY=0;exitDx=0;exitDy=0;entryX=0.5;entryY=1;entryDx=0;entryDy=0;fontSize=12;startSize=8;endSize=8;" parent="1" source="DgqKghVQSb-tML7D4mr0-274" target="DgqKghVQSb-tML7D4mr0-208" edge="1">
          <mxGeometry relative="1" as="geometry">
            <Array as="points">
              <mxPoint x="3376" y="408" />
              <mxPoint x="3148" y="408" />
            </Array>
          </mxGeometry>
        </mxCell>
        <mxCell id="DgqKghVQSb-tML7D4mr0-274" value="nroUsuarioInt" style="rounded=0;whiteSpace=wrap;html=1;fillColor=#E6E6E6;" parent="1" vertex="1">
          <mxGeometry x="3326" y="712.5" width="100" height="25" as="geometry" />
        </mxCell>
        <mxCell id="DgqKghVQSb-tML7D4mr0-335" style="edgeStyle=orthogonalEdgeStyle;rounded=0;orthogonalLoop=1;jettySize=auto;html=1;exitX=0.5;exitY=1;exitDx=0;exitDy=0;entryX=0.5;entryY=1;entryDx=0;entryDy=0;fontSize=12;startSize=8;endSize=8;" parent="1" source="DgqKghVQSb-tML7D4mr0-275" target="DgqKghVQSb-tML7D4mr0-276" edge="1">
          <mxGeometry relative="1" as="geometry" />
        </mxCell>
        <mxCell id="DgqKghVQSb-tML7D4mr0-336" style="edgeStyle=orthogonalEdgeStyle;rounded=0;orthogonalLoop=1;jettySize=auto;html=1;exitX=0.5;exitY=1;exitDx=0;exitDy=0;entryX=0.5;entryY=1;entryDx=0;entryDy=0;fontSize=12;startSize=8;endSize=8;" parent="1" source="DgqKghVQSb-tML7D4mr0-275" target="DgqKghVQSb-tML7D4mr0-277" edge="1">
          <mxGeometry relative="1" as="geometry" />
        </mxCell>
        <mxCell id="DgqKghVQSb-tML7D4mr0-275" value="nroInsumo" style="rounded=0;whiteSpace=wrap;html=1;fillColor=#E6E6E6;fontStyle=4" parent="1" vertex="1">
          <mxGeometry x="2992" y="802" width="81" height="25" as="geometry" />
        </mxCell>
        <mxCell id="DgqKghVQSb-tML7D4mr0-276" value="nombre" style="rounded=0;whiteSpace=wrap;html=1;fillColor=#E6E6E6;" parent="1" vertex="1">
          <mxGeometry x="3073" y="802" width="81" height="25" as="geometry" />
        </mxCell>
        <mxCell id="DgqKghVQSb-tML7D4mr0-277" value="descripción" style="rounded=0;whiteSpace=wrap;html=1;fillColor=#E6E6E6;" parent="1" vertex="1">
          <mxGeometry x="3154" y="802" width="92" height="25" as="geometry" />
        </mxCell>
        <mxCell id="DgqKghVQSb-tML7D4mr0-278" value="Insumo" style="rounded=0;whiteSpace=wrap;html=1;strokeColor=none;fontStyle=1;fontSize=14;align=left;" parent="1" vertex="1">
          <mxGeometry x="2992" y="778" width="122" height="18" as="geometry" />
        </mxCell>
        <mxCell id="DgqKghVQSb-tML7D4mr0-337" style="edgeStyle=orthogonalEdgeStyle;rounded=0;orthogonalLoop=1;jettySize=auto;html=1;exitX=0.5;exitY=1;exitDx=0;exitDy=0;entryX=0.5;entryY=1;entryDx=0;entryDy=0;fontSize=12;startSize=8;endSize=8;" parent="1" source="DgqKghVQSb-tML7D4mr0-279" target="DgqKghVQSb-tML7D4mr0-281" edge="1">
          <mxGeometry relative="1" as="geometry" />
        </mxCell>
        <mxCell id="DgqKghVQSb-tML7D4mr0-349" style="edgeStyle=orthogonalEdgeStyle;rounded=0;orthogonalLoop=1;jettySize=auto;html=1;exitX=0;exitY=0.5;exitDx=0;exitDy=0;entryX=0.25;entryY=1;entryDx=0;entryDy=0;fontSize=12;startSize=8;endSize=8;" parent="1" source="DgqKghVQSb-tML7D4mr0-279" target="DgqKghVQSb-tML7D4mr0-275" edge="1">
          <mxGeometry relative="1" as="geometry">
            <Array as="points">
              <mxPoint x="2969" y="910" />
              <mxPoint x="2969" y="846" />
              <mxPoint x="3012" y="846" />
            </Array>
          </mxGeometry>
        </mxCell>
        <mxCell id="DgqKghVQSb-tML7D4mr0-279" value="nroInsumo" style="rounded=0;whiteSpace=wrap;html=1;fillColor=#E6E6E6;fontStyle=4" parent="1" vertex="1">
          <mxGeometry x="2992" y="897" width="81" height="25" as="geometry" />
        </mxCell>
        <mxCell id="DgqKghVQSb-tML7D4mr0-338" style="edgeStyle=orthogonalEdgeStyle;rounded=0;orthogonalLoop=1;jettySize=auto;html=1;exitX=0.5;exitY=1;exitDx=0;exitDy=0;entryX=0.5;entryY=1;entryDx=0;entryDy=0;fontSize=12;startSize=8;endSize=8;" parent="1" source="DgqKghVQSb-tML7D4mr0-280" target="DgqKghVQSb-tML7D4mr0-281" edge="1">
          <mxGeometry relative="1" as="geometry" />
        </mxCell>
        <mxCell id="DgqKghVQSb-tML7D4mr0-347" style="edgeStyle=orthogonalEdgeStyle;rounded=0;orthogonalLoop=1;jettySize=auto;html=1;exitX=0.5;exitY=0;exitDx=0;exitDy=0;entryX=0.25;entryY=1;entryDx=0;entryDy=0;fontSize=12;startSize=8;endSize=8;" parent="1" source="DgqKghVQSb-tML7D4mr0-280" target="DgqKghVQSb-tML7D4mr0-245" edge="1">
          <mxGeometry relative="1" as="geometry">
            <Array as="points">
              <mxPoint x="3114" y="868" />
              <mxPoint x="2934" y="868" />
              <mxPoint x="2934" y="1030" />
              <mxPoint x="3012" y="1030" />
            </Array>
          </mxGeometry>
        </mxCell>
        <mxCell id="DgqKghVQSb-tML7D4mr0-280" value="nroRefugio" style="rounded=0;whiteSpace=wrap;html=1;fillColor=#E6E6E6;fontStyle=4" parent="1" vertex="1">
          <mxGeometry x="3073" y="897" width="81" height="25" as="geometry" />
        </mxCell>
        <mxCell id="DgqKghVQSb-tML7D4mr0-281" value="stock" style="rounded=0;whiteSpace=wrap;html=1;fillColor=#E6E6E6;" parent="1" vertex="1">
          <mxGeometry x="3154" y="897" width="92" height="25" as="geometry" />
        </mxCell>
        <mxCell id="DgqKghVQSb-tML7D4mr0-282" value="InsumoRefugio" style="rounded=0;whiteSpace=wrap;html=1;strokeColor=none;fontStyle=1;fontSize=14;align=left;" parent="1" vertex="1">
          <mxGeometry x="2992" y="873" width="115" height="18" as="geometry" />
        </mxCell>
        <mxCell id="DgqKghVQSb-tML7D4mr0-339" style="edgeStyle=orthogonalEdgeStyle;rounded=0;orthogonalLoop=1;jettySize=auto;html=1;exitX=0.5;exitY=1;exitDx=0;exitDy=0;entryX=0.5;entryY=1;entryDx=0;entryDy=0;fontSize=12;startSize=8;endSize=8;" parent="1" source="DgqKghVQSb-tML7D4mr0-290" target="DgqKghVQSb-tML7D4mr0-291" edge="1">
          <mxGeometry relative="1" as="geometry" />
        </mxCell>
        <mxCell id="DgqKghVQSb-tML7D4mr0-340" style="edgeStyle=orthogonalEdgeStyle;rounded=0;orthogonalLoop=1;jettySize=auto;html=1;exitX=0.5;exitY=1;exitDx=0;exitDy=0;entryX=0.5;entryY=1;entryDx=0;entryDy=0;fontSize=12;startSize=8;endSize=8;" parent="1" source="DgqKghVQSb-tML7D4mr0-290" target="DgqKghVQSb-tML7D4mr0-292" edge="1">
          <mxGeometry relative="1" as="geometry" />
        </mxCell>
        <mxCell id="DgqKghVQSb-tML7D4mr0-341" style="edgeStyle=orthogonalEdgeStyle;rounded=0;orthogonalLoop=1;jettySize=auto;html=1;exitX=0.5;exitY=1;exitDx=0;exitDy=0;entryX=0.5;entryY=1;entryDx=0;entryDy=0;fontSize=12;startSize=8;endSize=8;" parent="1" source="DgqKghVQSb-tML7D4mr0-290" target="DgqKghVQSb-tML7D4mr0-293" edge="1">
          <mxGeometry relative="1" as="geometry" />
        </mxCell>
        <mxCell id="DgqKghVQSb-tML7D4mr0-342" style="edgeStyle=orthogonalEdgeStyle;rounded=0;orthogonalLoop=1;jettySize=auto;html=1;exitX=0.5;exitY=1;exitDx=0;exitDy=0;entryX=0.5;entryY=1;entryDx=0;entryDy=0;fontSize=12;startSize=8;endSize=8;" parent="1" source="DgqKghVQSb-tML7D4mr0-290" target="DgqKghVQSb-tML7D4mr0-295" edge="1">
          <mxGeometry relative="1" as="geometry" />
        </mxCell>
        <mxCell id="DgqKghVQSb-tML7D4mr0-343" style="edgeStyle=orthogonalEdgeStyle;rounded=0;orthogonalLoop=1;jettySize=auto;html=1;exitX=0.5;exitY=1;exitDx=0;exitDy=0;entryX=0.5;entryY=1;entryDx=0;entryDy=0;fontSize=12;startSize=8;endSize=8;" parent="1" source="DgqKghVQSb-tML7D4mr0-290" target="DgqKghVQSb-tML7D4mr0-296" edge="1">
          <mxGeometry relative="1" as="geometry" />
        </mxCell>
        <mxCell id="DgqKghVQSb-tML7D4mr0-290" value="nroGasto" style="rounded=0;whiteSpace=wrap;html=1;fillColor=#E6E6E6;fontStyle=4" parent="1" vertex="1">
          <mxGeometry x="2992" y="1069" width="81" height="25" as="geometry" />
        </mxCell>
        <mxCell id="DgqKghVQSb-tML7D4mr0-291" value="monto" style="rounded=0;whiteSpace=wrap;html=1;fillColor=#E6E6E6;" parent="1" vertex="1">
          <mxGeometry x="3073" y="1069" width="81" height="25" as="geometry" />
        </mxCell>
        <mxCell id="DgqKghVQSb-tML7D4mr0-292" value="observación" style="rounded=0;whiteSpace=wrap;html=1;fillColor=#E6E6E6;" parent="1" vertex="1">
          <mxGeometry x="3154" y="1069" width="91" height="25" as="geometry" />
        </mxCell>
        <mxCell id="DgqKghVQSb-tML7D4mr0-293" value="tipo" style="rounded=0;whiteSpace=wrap;html=1;fillColor=#E6E6E6;" parent="1" vertex="1">
          <mxGeometry x="3244" y="1069" width="62" height="25" as="geometry" />
        </mxCell>
        <mxCell id="DgqKghVQSb-tML7D4mr0-294" value="Gasto" style="rounded=0;whiteSpace=wrap;html=1;strokeColor=none;fontStyle=1;fontSize=14;align=left;" parent="1" vertex="1">
          <mxGeometry x="2992" y="1045" width="133" height="18" as="geometry" />
        </mxCell>
        <mxCell id="DgqKghVQSb-tML7D4mr0-295" value="fecha" style="rounded=0;whiteSpace=wrap;html=1;fillColor=#E6E6E6;" parent="1" vertex="1">
          <mxGeometry x="3306" y="1069" width="69" height="25" as="geometry" />
        </mxCell>
        <mxCell id="DgqKghVQSb-tML7D4mr0-358" style="edgeStyle=orthogonalEdgeStyle;rounded=0;orthogonalLoop=1;jettySize=auto;html=1;exitX=1;exitY=0.5;exitDx=0;exitDy=0;entryX=0.5;entryY=1;entryDx=0;entryDy=0;fontSize=12;startSize=8;endSize=8;" parent="1" source="DgqKghVQSb-tML7D4mr0-296" target="DgqKghVQSb-tML7D4mr0-208" edge="1">
          <mxGeometry relative="1" as="geometry">
            <Array as="points">
              <mxPoint x="3624" y="1082" />
              <mxPoint x="3624" y="408" />
              <mxPoint x="3148" y="408" />
            </Array>
          </mxGeometry>
        </mxCell>
        <mxCell id="DgqKghVQSb-tML7D4mr0-296" value="nroUsuarioInt" style="rounded=0;whiteSpace=wrap;html=1;fillColor=#E6E6E6;" parent="1" vertex="1">
          <mxGeometry x="3375" y="1069" width="100" height="25" as="geometry" />
        </mxCell>
        <mxCell id="DgqKghVQSb-tML7D4mr0-352" style="edgeStyle=orthogonalEdgeStyle;rounded=0;orthogonalLoop=1;jettySize=auto;html=1;exitX=0.5;exitY=1;exitDx=0;exitDy=0;entryX=0.25;entryY=1;entryDx=0;entryDy=0;fontSize=12;startSize=8;endSize=8;" parent="1" source="DgqKghVQSb-tML7D4mr0-263" target="DgqKghVQSb-tML7D4mr0-208" edge="1">
          <mxGeometry relative="1" as="geometry">
            <Array as="points">
              <mxPoint x="3119" y="672" />
              <mxPoint x="3352" y="672" />
              <mxPoint x="3352" y="433" />
              <mxPoint x="3117" y="433" />
            </Array>
          </mxGeometry>
        </mxCell>
        <mxCell id="Q6MzQbn6rYoNHMJF28ys-7" style="edgeStyle=none;curved=1;rounded=0;orthogonalLoop=1;jettySize=auto;html=1;exitX=1;exitY=0.5;exitDx=0;exitDy=0;entryX=0;entryY=0.5;entryDx=0;entryDy=0;fontSize=12;startSize=8;endSize=8;endArrow=none;endFill=0;" edge="1" parent="1" source="Q6MzQbn6rYoNHMJF28ys-6" target="DgqKghVQSb-tML7D4mr0-11">
          <mxGeometry relative="1" as="geometry" />
        </mxCell>
        <mxCell id="Q6MzQbn6rYoNHMJF28ys-6" value="administra" style="rhombus;whiteSpace=wrap;html=1;" vertex="1" parent="1">
          <mxGeometry x="1427" y="-42.5" width="80" height="80" as="geometry" />
        </mxCell>
        <mxCell id="Q6MzQbn6rYoNHMJF28ys-9" value="registra" style="rhombus;whiteSpace=wrap;html=1;" vertex="1" parent="1">
          <mxGeometry x="2008" y="-303.75" width="80" height="80" as="geometry" />
        </mxCell>
      </root>
    </mxGraphModel>
  </diagram>
</mxfile>
